<svg width="48" height="48" viewBox="0 0 48 48" fill="none" xmlns="http://www.w3.org/2000/svg">
<g clip-path="url(#clip0_1_2177)">
<path d="M26.06 3.73996L4.08 0.399961C3.06 0.239961 2.02 0.519961 1.24 1.17996C0.46 1.85996 0 2.83996 0 3.85996V46C0 47.1 0.9 48 2 48H8.5V37.5C8.5 35.56 10.06 34 12 34H17C18.94 34 20.5 35.56 20.5 37.5V48H29V7.19996C29 5.47996 27.76 4.01996 26.06 3.73996ZM11 29.5H8C7.172 29.5 6.5 28.828 6.5 28C6.5 27.172 7.172 26.5 8 26.5H11C11.828 26.5 12.5 27.172 12.5 28C12.5 28.828 11.828 29.5 11 29.5ZM11 23.5H8C7.172 23.5 6.5 22.828 6.5 22C6.5 21.172 7.172 20.5 8 20.5H11C11.828 20.5 12.5 21.172 12.5 22C12.5 22.828 11.828 23.5 11 23.5ZM11 17.5H8C7.172 17.5 6.5 16.828 6.5 16C6.5 15.172 7.172 14.5 8 14.5H11C11.828 14.5 12.5 15.172 12.5 16C12.5 16.828 11.828 17.5 11 17.5ZM11 11.5H8C7.172 11.5 6.5 10.828 6.5 9.99996C6.5 9.17196 7.172 8.49996 8 8.49996H11C11.828 8.49996 12.5 9.17196 12.5 9.99996C12.5 10.828 11.828 11.5 11 11.5ZM21 29.5H18C17.172 29.5 16.5 28.828 16.5 28C16.5 27.172 17.172 26.5 18 26.5H21C21.828 26.5 22.5 27.172 22.5 28C22.5 28.828 21.828 29.5 21 29.5ZM21 23.5H18C17.172 23.5 16.5 22.828 16.5 22C16.5 21.172 17.172 20.5 18 20.5H21C21.828 20.5 22.5 21.172 22.5 22C22.5 22.828 21.828 23.5 21 23.5ZM21 17.5H18C17.172 17.5 16.5 16.828 16.5 16C16.5 15.172 17.172 14.5 18 14.5H21C21.828 14.5 22.5 15.172 22.5 16C22.5 16.828 21.828 17.5 21 17.5ZM21 11.5H18C17.172 11.5 16.5 10.828 16.5 9.99996C16.5 9.17196 17.172 8.49996 18 8.49996H21C21.828 8.49996 22.5 9.17196 22.5 9.99996C22.5 10.828 21.828 11.5 21 11.5Z" fill="white"/>
<path d="M45.24 21.6839L31 18.7019V47.9999H44.5C46.43 47.9999 48 46.4299 48 44.4999V25.1039C48 23.4519 46.874 22.0459 45.24 21.6839ZM40.5 41.9999H37.5C36.672 41.9999 36 41.3279 36 40.4999C36 39.6719 36.672 38.9999 37.5 38.9999H40.5C41.328 38.9999 42 39.6719 42 40.4999C42 41.3279 41.328 41.9999 40.5 41.9999ZM40.5 35.9999H37.5C36.672 35.9999 36 35.3279 36 34.4999C36 33.6719 36.672 32.9999 37.5 32.9999H40.5C41.328 32.9999 42 33.6719 42 34.4999C42 35.3279 41.328 35.9999 40.5 35.9999ZM40.5 29.9999H37.5C36.672 29.9999 36 29.3279 36 28.4999C36 27.6719 36.672 26.9999 37.5 26.9999H40.5C41.328 26.9999 42 27.6719 42 28.4999C42 29.3279 41.328 29.9999 40.5 29.9999Z" fill="white" fill-opacity="0.5"/>
</g>
<defs>
<clipPath id="clip0_1_2177">
<rect width="48" height="48" fill="white"/>
</clipPath>
</defs>
</svg>
