<svg width="42" height="42" viewBox="0 0 42 42" fill="none" xmlns="http://www.w3.org/2000/svg">
<path d="M34.5 9.00001H41.115L33 0.88501V7.50001C33 7.89783 33.158 8.27937 33.4393 8.56067C33.7206 8.84197 34.1022 9.00001 34.5 9.00001Z" fill="white" fill-opacity="0.5"/>
<path d="M34.5 12C33.3065 12 32.1619 11.5259 31.318 10.682C30.4741 9.83807 30 8.69347 30 7.5V0H13.5C12.3065 0 11.1619 0.474106 10.318 1.31802C9.47411 2.16193 9 3.30653 9 4.5V9C11.3033 9.00543 13.5564 9.67364 15.4902 10.9248C17.4241 12.176 18.957 13.9573 19.9059 16.0561C20.8549 18.1548 21.1798 20.4823 20.8418 22.7607C20.5038 25.0391 19.5173 27.1721 18 28.905V40.5C18.0019 41.0123 17.9104 41.5206 17.73 42H37.5C38.6935 42 39.8381 41.5259 40.682 40.682C41.5259 39.8381 42 38.6935 42 37.5V12H34.5ZM19.5 10.5C19.5 10.1022 19.658 9.72064 19.9393 9.43934C20.2206 9.15804 20.6022 9 21 9H25.5C25.8978 9 26.2794 9.15804 26.5607 9.43934C26.842 9.72064 27 10.1022 27 10.5C27 10.8978 26.842 11.2794 26.5607 11.5607C26.2794 11.842 25.8978 12 25.5 12H21C20.6022 12 20.2206 11.842 19.9393 11.5607C19.658 11.2794 19.5 10.8978 19.5 10.5ZM34.5 34.5H22.5C22.1022 34.5 21.7206 34.342 21.4393 34.0607C21.158 33.7794 21 33.3978 21 33C21 32.6022 21.158 32.2206 21.4393 31.9393C21.7206 31.658 22.1022 31.5 22.5 31.5H34.5C34.8978 31.5 35.2794 31.658 35.5607 31.9393C35.842 32.2206 36 32.6022 36 33C36 33.3978 35.842 33.7794 35.5607 34.0607C35.2794 34.342 34.8978 34.5 34.5 34.5ZM34.5 27H25.5C25.1022 27 24.7206 26.842 24.4393 26.5607C24.158 26.2794 24 25.8978 24 25.5C24 25.1022 24.158 24.7206 24.4393 24.4393C24.7206 24.158 25.1022 24 25.5 24H34.5C34.8978 24 35.2794 24.158 35.5607 24.4393C35.842 24.7206 36 25.1022 36 25.5C36 25.8978 35.842 26.2794 35.5607 26.5607C35.2794 26.842 34.8978 27 34.5 27ZM34.5 19.5H25.5C25.1022 19.5 24.7206 19.342 24.4393 19.0607C24.158 18.7794 24 18.3978 24 18C24 17.6022 24.158 17.2206 24.4393 16.9393C24.7206 16.658 25.1022 16.5 25.5 16.5H34.5C34.8978 16.5 35.2794 16.658 35.5607 16.9393C35.842 17.2206 36 17.6022 36 18C36 18.3978 35.842 18.7794 35.5607 19.0607C35.2794 19.342 34.8978 19.5 34.5 19.5Z" fill="white" fill-opacity="0.5"/>
<path d="M3 31.3799V40.4999C3.00148 40.796 3.09058 41.0851 3.25608 41.3307C3.42158 41.5763 3.65607 41.7674 3.93 41.8799C4.20317 41.9948 4.50424 42.0261 4.79522 41.9701C5.0862 41.914 5.35406 41.773 5.565 41.5649L9 38.1149L12.435 41.5649C12.5752 41.7039 12.7414 41.8139 12.9241 41.8885C13.1069 41.9632 13.3026 42.001 13.5 41.9999C13.6968 42.005 13.892 41.9639 14.07 41.8799C14.3439 41.7674 14.5784 41.5763 14.7439 41.3307C14.9094 41.0851 14.9985 40.796 15 40.4999V31.3799C13.1783 32.4405 11.108 32.9993 9 32.9993C6.89202 32.9993 4.82172 32.4405 3 31.3799Z" fill="white"/>
<path d="M9 30C13.9706 30 18 25.9706 18 21C18 16.0294 13.9706 12 9 12C4.02944 12 0 16.0294 0 21C0 25.9706 4.02944 30 9 30Z" fill="white"/>
</svg>
