<svg width="48" height="48" viewBox="0 0 48 48" fill="none" xmlns="http://www.w3.org/2000/svg">
<g clip-path="url(#clip0_1_2184)">
<path d="M9.40794 28.5396H18.3406V26.6546C18.3406 23.4377 15.7328 20.8298 12.5159 20.8298H5.82474C2.60782 20.8298 0 23.4377 0 26.6546V35.7496H9.40794V28.5396Z" fill="white"/>
<path d="M9.17032 17.8851C12.8941 17.8851 15.9129 14.8663 15.9129 11.1425C15.9129 7.41866 12.8941 4.3999 9.17032 4.3999C5.44649 4.3999 2.42773 7.41866 2.42773 11.1425C2.42773 14.8663 5.44649 17.8851 9.17032 17.8851Z" fill="white"/>
<path d="M12.219 31.3506H17.0526V46.113H12.219V31.3506Z" fill="white" fill-opacity="0.5"/>
<path d="M34.244 29.6877H32.3051V25.1222C32.3051 22.4737 30.1582 20.3267 27.5096 20.3267C26.4148 20.3267 25.5274 21.2141 25.5274 22.3089V27.0159L23.2829 29.6877L19.8638 31.3506V46.113L23.0136 47.9873H34.244C36.8651 47.9873 38.99 45.8624 38.99 43.2413V34.4337C38.99 31.8126 36.8651 29.6877 34.244 29.6877Z" fill="white" fill-opacity="0.5"/>
<path d="M22.5869 6.33941C25.1269 7.96248 27.2906 10.1261 28.9137 12.6661C30.5368 10.1261 32.7004 7.96248 35.2404 6.33941C32.7005 4.71634 30.5368 2.55277 28.9137 0.0126953C27.2906 2.55277 25.1269 4.71634 22.5869 6.33941Z" fill="white"/>
<path d="M48 16.4795C45.46 14.8565 43.2963 12.6928 41.6732 10.1528C40.0501 12.6929 37.8864 14.8566 35.3464 16.4795C37.8864 18.1026 40.05 20.2662 41.6732 22.8063C43.2963 20.2662 45.4599 18.1026 48 16.4795Z" fill="white"/>
</g>
<defs>
<clipPath id="clip0_1_2184">
<rect width="48" height="48" fill="white"/>
</clipPath>
</defs>
</svg>
