<svg width="34" height="38" viewBox="0 0 34 38" fill="none" xmlns="http://www.w3.org/2000/svg">
<path fill-rule="evenodd" clip-rule="evenodd" d="M2.38713 2.52019C0.200195 4.70712 0.200195 8.22694 0.200195 15.2666V22.7333C0.200195 29.7729 0.200195 33.2927 2.38713 35.4796C4.57407 37.6666 8.09389 37.6666 15.1335 37.6666H18.8669C25.9065 37.6666 29.4263 37.6666 31.6133 35.4796C33.8002 33.2927 33.8002 29.7729 33.8002 22.7333V15.2666C33.8002 8.22694 33.8002 4.70712 31.6133 2.52019C29.4263 0.333252 25.9065 0.333252 18.8669 0.333252H15.1335C8.09389 0.333252 4.57407 0.333252 2.38713 2.52019ZM8.13353 11.5333C8.13353 10.7601 8.76033 10.1333 9.53353 10.1333H24.4669C25.2401 10.1333 25.8669 10.7601 25.8669 11.5333C25.8669 12.3065 25.2401 12.9333 24.4669 12.9333H9.53353C8.76033 12.9333 8.13353 12.3065 8.13353 11.5333ZM8.13353 18.9999C8.13353 18.2267 8.76033 17.5999 9.53353 17.5999H24.4669C25.2401 17.5999 25.8669 18.2267 25.8669 18.9999C25.8669 19.7731 25.2401 20.3999 24.4669 20.3999H9.53353C8.76033 20.3999 8.13353 19.7731 8.13353 18.9999ZM9.53353 25.0666C8.76033 25.0666 8.13353 25.6934 8.13353 26.4666C8.13353 27.2398 8.76033 27.8666 9.53353 27.8666H18.8669C19.6401 27.8666 20.2669 27.2398 20.2669 26.4666C20.2669 25.6934 19.6401 25.0666 18.8669 25.0666H9.53353Z" fill="white"/>
</svg>
