<svg width="48" height="48" viewBox="0 0 48 48" fill="none" xmlns="http://www.w3.org/2000/svg">
<path d="M35.667 3.79341C39.1863 5.8254 42.1139 8.7413 44.1599 12.2524C46.2059 15.7636 47.2995 19.7482 47.3323 23.8119C47.3651 27.8755 46.3361 31.8773 44.347 35.421C42.358 38.9648 39.4779 41.9276 35.9919 44.0162C32.5059 46.1047 28.5348 47.2467 24.4719 47.3289C20.4089 47.4111 16.3949 46.4308 12.8273 44.485C9.25963 42.5392 6.26202 39.6953 4.13121 36.2349C2.0004 32.7746 0.810281 28.8177 0.678659 24.7561L0.666992 24.0001L0.678659 23.2441C0.809333 19.2144 1.98194 15.2873 4.08215 11.8457C6.18236 8.40413 9.13852 5.56546 12.6624 3.60647C16.1863 1.64747 20.1577 0.635 24.1893 0.667763C28.221 0.700525 32.1754 1.7774 35.667 3.79341ZM32.65 17.6837C32.2482 17.282 31.7136 17.0407 31.1466 17.005C30.5795 16.9693 30.0189 17.1418 29.57 17.4901L29.3507 17.6837L21.667 25.3651L18.65 22.3504L18.4307 22.1567C17.9817 21.8087 17.4212 21.6365 16.8543 21.6722C16.2873 21.708 15.7529 21.9493 15.3513 22.351C14.9496 22.7527 14.7083 23.2871 14.6725 23.854C14.6367 24.4209 14.809 24.9814 15.157 25.4304L15.3507 25.6497L20.0173 30.3164L20.2367 30.5101C20.6459 30.8276 21.1491 30.9999 21.667 30.9999C22.1849 30.9999 22.6881 30.8276 23.0973 30.5101L23.3167 30.3164L32.65 20.9831L32.8437 20.7637C33.1919 20.3148 33.3644 19.7542 33.3287 19.1872C33.2931 18.6201 33.0517 18.0855 32.65 17.6837Z" fill="white"/>
</svg>
