<svg width="29" height="38" viewBox="0 0 29 38" fill="none" xmlns="http://www.w3.org/2000/svg">
<path fill-rule="evenodd" clip-rule="evenodd" d="M14.0664 0.333252C6.33442 0.333252 0.0664062 6.74703 0.0664062 14.6588C0.0664062 18.9006 1.86965 22.7131 4.73044 25.3342C5.68395 26.2079 6.39034 26.8552 6.89096 27.3248C7.14127 27.5596 7.33264 27.743 7.47389 27.8838C7.54429 27.954 7.59815 28.0095 7.63827 28.0526C7.65812 28.0739 7.67306 28.0905 7.68391 28.1029C7.69452 28.115 7.69957 28.1213 7.69957 28.1213C8.14107 28.6788 8.23662 28.8226 8.29353 28.9529C8.35044 29.0832 8.3914 29.252 8.50278 29.9604C8.54676 30.2401 8.55126 30.7192 8.55126 32.0232L8.55125 32.0791C8.55122 32.8428 8.5512 33.5015 8.59908 34.042C8.64971 34.6136 8.7618 35.1796 9.06279 35.7131C9.39791 36.307 9.87991 36.8002 10.4603 37.1432C10.9817 37.4511 11.5348 37.5658 12.0934 37.6177C12.6217 37.6666 13.2654 37.6666 14.0117 37.6666H14.1211C14.8674 37.6666 15.5111 37.6666 16.0394 37.6177C16.598 37.5658 17.1511 37.4511 17.6725 37.1432C18.2529 36.8002 18.7349 36.307 19.07 35.7131C19.371 35.1796 19.4831 34.6136 19.5337 34.042C19.5816 33.5015 19.5816 32.8428 19.5816 32.0791V32.0232C19.5816 30.7192 19.5861 30.2401 19.63 29.9604C19.7414 29.252 19.7824 29.0832 19.8393 28.9529C19.8962 28.8226 19.9917 28.6788 20.4332 28.1213C20.4332 28.1213 20.4378 28.1155 20.4489 28.1029C20.4598 28.0905 20.4747 28.0739 20.4945 28.0526C20.5347 28.0095 20.5885 27.954 20.6589 27.8838C20.8002 27.743 20.9915 27.5596 21.2419 27.3248C21.7425 26.8552 22.4489 26.2079 23.4024 25.3342C26.2632 22.7131 28.0664 18.9006 28.0664 14.6588C28.0664 6.74703 21.7984 0.333252 14.0664 0.333252ZM17.0252 33.3255H11.1076C11.1132 33.5065 11.1215 33.6646 11.1341 33.8069C11.1688 34.1979 11.2272 34.3398 11.2672 34.4108C11.3789 34.6087 11.5396 34.7732 11.7331 34.8875C11.8024 34.9284 11.9411 34.9882 12.3232 35.0236C12.7227 35.0607 13.25 35.0619 14.0664 35.0619C14.8828 35.0619 15.4101 35.0607 15.8096 35.0236C16.1917 34.9882 16.3304 34.9284 16.3997 34.8875C16.5932 34.7732 16.7539 34.6087 16.8656 34.4108C16.9056 34.3398 16.964 34.1979 16.9987 33.8069C17.0113 33.6646 17.0196 33.5065 17.0252 33.3255ZM16.1393 11.8627C16.7112 12.2807 16.8437 13.0941 16.4352 13.6794L14.2363 16.8294H16.8541C17.3308 16.8294 17.7676 17.102 17.9857 17.5358C18.2039 17.9695 18.1668 18.4917 17.8897 18.8887L14.2534 24.098C13.8448 24.6832 13.0499 24.8188 12.4779 24.4008C11.906 23.9827 11.7735 23.1693 12.182 22.584L14.3809 19.434H11.7631C11.2864 19.434 10.8496 19.1614 10.6315 18.7276C10.4133 18.2939 10.4504 17.7717 10.7275 17.3747L14.3638 12.1654C14.7724 11.5802 15.5673 11.4446 16.1393 11.8627Z" fill="white"/>
</svg>
