<svg width="38" height="46" viewBox="0 0 38 46" fill="none" xmlns="http://www.w3.org/2000/svg">
<path d="M0.333008 5.66676C0.333052 5.35647 0.394983 5.04931 0.515178 4.76324C0.635373 4.47718 0.811418 4.21796 1.03301 4.00076C3.57598 1.50792 6.97332 0.0778013 10.5335 0.0015078C14.0938 -0.0747857 17.5492 1.20848 20.1967 3.59009L21.0157 4.35543C22.7177 5.84666 24.9035 6.66876 27.1663 6.66876C29.4292 6.66876 31.615 5.84666 33.317 4.35543L33.898 3.82576C35.3213 2.69876 37.461 3.59943 37.6547 5.40309L37.6663 5.66676V26.6668C37.6663 26.977 37.6044 27.2842 37.4842 27.5703C37.364 27.8563 37.1879 28.1156 36.9663 28.3328C34.4234 30.8256 31.026 32.2557 27.4658 32.332C23.9056 32.4083 20.4501 31.125 17.8027 28.7434L16.9837 27.9781C15.3353 26.5338 13.2311 25.7156 11.04 25.667C8.8489 25.6183 6.71056 26.3423 4.99967 27.7121V43.0001C4.99902 43.5948 4.77129 44.1668 4.36303 44.5993C3.95477 45.0317 3.39678 45.292 2.80309 45.3268C2.20939 45.3617 1.62479 45.1685 1.16873 44.7868C0.712675 44.4051 0.419583 43.8637 0.349341 43.2731L0.333008 43.0001V5.66676Z" fill="white"/>
</svg>
