<svg width="29" height="39" viewBox="0 0 29 39" fill="none" xmlns="http://www.w3.org/2000/svg">
<path fill-rule="evenodd" clip-rule="evenodd" d="M14.0664 0.833252C6.33442 0.833252 0.0664062 7.24703 0.0664062 15.1588C0.0664062 19.4006 1.86965 23.2131 4.73044 25.8342C5.68395 26.7079 6.39034 27.3552 6.89096 27.8248C7.14127 28.0596 7.33264 28.243 7.47389 28.3838C7.54429 28.454 7.59815 28.5095 7.63827 28.5526C7.65812 28.5739 7.67306 28.5905 7.68391 28.6029C7.69452 28.615 7.69957 28.6213 7.69957 28.6213C8.14107 29.1788 8.23662 29.3226 8.29353 29.4529C8.35044 29.5832 8.3914 29.752 8.50278 30.4604C8.54676 30.7401 8.55126 31.2192 8.55126 32.5232L8.55125 32.5791C8.55122 33.3428 8.5512 34.0015 8.59908 34.542C8.64971 35.1136 8.7618 35.6796 9.06279 36.2131C9.39791 36.807 9.87991 37.3002 10.4603 37.6432C10.9817 37.9511 11.5348 38.0658 12.0934 38.1177C12.6217 38.1666 13.2654 38.1666 14.0117 38.1666H14.1211C14.8674 38.1666 15.5111 38.1666 16.0394 38.1177C16.598 38.0658 17.1511 37.9511 17.6725 37.6432C18.2529 37.3002 18.7349 36.807 19.07 36.2131C19.371 35.6796 19.4831 35.1136 19.5337 34.542C19.5816 34.0015 19.5816 33.3428 19.5816 32.5791V32.5232C19.5816 31.2192 19.5861 30.7401 19.63 30.4604C19.7414 29.752 19.7824 29.5832 19.8393 29.4529C19.8962 29.3226 19.9917 29.1788 20.4332 28.6213C20.4332 28.6213 20.4378 28.6155 20.4489 28.6029C20.4598 28.5905 20.4747 28.5739 20.4945 28.5526C20.5347 28.5095 20.5885 28.454 20.6589 28.3838C20.8002 28.243 20.9915 28.0596 21.2419 27.8248C21.7425 27.3552 22.4489 26.7079 23.4024 25.8342C26.2632 23.2131 28.0664 19.4006 28.0664 15.1588C28.0664 7.24703 21.7984 0.833252 14.0664 0.833252ZM17.0252 33.8255H11.1076C11.1132 34.0065 11.1215 34.1646 11.1341 34.3069C11.1688 34.6979 11.2272 34.8398 11.2672 34.9108C11.3789 35.1087 11.5396 35.2732 11.7331 35.3875C11.8024 35.4284 11.9411 35.4882 12.3232 35.5236C12.7227 35.5607 13.25 35.5619 14.0664 35.5619C14.8828 35.5619 15.4101 35.5607 15.8096 35.5236C16.1917 35.4882 16.3304 35.4284 16.3997 35.3875C16.5932 35.2732 16.7539 35.1087 16.8656 34.9108C16.9056 34.8398 16.964 34.6979 16.9987 34.3069C17.0113 34.1646 17.0196 34.0065 17.0252 33.8255ZM16.1393 12.3627C16.7112 12.7807 16.8437 13.5941 16.4352 14.1794L14.2363 17.3294H16.8541C17.3308 17.3294 17.7676 17.602 17.9857 18.0358C18.2039 18.4695 18.1668 18.9917 17.8897 19.3887L14.2534 24.598C13.8448 25.1832 13.0499 25.3188 12.4779 24.9008C11.906 24.4827 11.7735 23.6693 12.182 23.084L14.3809 19.934H11.7631C11.2864 19.934 10.8496 19.6614 10.6315 19.2276C10.4133 18.7939 10.4504 18.2717 10.7275 17.8747L14.3638 12.6654C14.7724 12.0802 15.5673 11.9446 16.1393 12.3627Z" fill="white"/>
</svg>
