<svg width="47" height="48" viewBox="0 0 47 48" fill="none" xmlns="http://www.w3.org/2000/svg">
<path d="M35.167 3.79341C38.6863 5.8254 41.6139 8.7413 43.6599 12.2524C45.7059 15.7636 46.7995 19.7482 46.8323 23.8119C46.8651 27.8755 45.8361 31.8773 43.847 35.421C41.858 38.9648 38.9779 41.9276 35.4919 44.0162C32.0059 46.1047 28.0348 47.2467 23.9719 47.3289C19.9089 47.4111 15.8949 46.4308 12.3273 44.485C8.75963 42.5392 5.76202 39.6953 3.63121 36.2349C1.5004 32.7746 0.310281 28.8177 0.178659 24.7561L0.166992 24.0001L0.178659 23.2441C0.309333 19.2144 1.48194 15.2873 3.58215 11.8457C5.68236 8.40413 8.63852 5.56546 12.1624 3.60647C15.6863 1.64747 19.6577 0.635 23.6893 0.667763C27.721 0.700525 31.6754 1.7774 35.167 3.79341ZM32.15 17.6837C31.7482 17.282 31.2136 17.0407 30.6466 17.005C30.0795 16.9693 29.5189 17.1418 29.07 17.4901L28.8507 17.6837L21.167 25.3651L18.15 22.3504L17.9307 22.1567C17.4817 21.8087 16.9212 21.6365 16.3543 21.6722C15.7873 21.708 15.2529 21.9493 14.8513 22.351C14.4496 22.7527 14.2083 23.2871 14.1725 23.854C14.1367 24.4209 14.309 24.9814 14.657 25.4304L14.8507 25.6497L19.5173 30.3164L19.7367 30.5101C20.1459 30.8276 20.6491 30.9999 21.167 30.9999C21.6849 30.9999 22.1881 30.8276 22.5973 30.5101L22.8167 30.3164L32.15 20.9831L32.3437 20.7637C32.6919 20.3148 32.8644 19.7542 32.8287 19.1872C32.7931 18.6201 32.5517 18.0855 32.15 17.6837Z" fill="white"/>
</svg>
