<svg width="39" height="46" viewBox="0 0 39 46" fill="none" xmlns="http://www.w3.org/2000/svg">
<path d="M0.833008 6.16676C0.833052 5.85647 0.894983 5.54931 1.01518 5.26324C1.13537 4.97718 1.31142 4.71796 1.53301 4.50076C4.07598 2.00792 7.47332 0.577801 11.0335 0.501508C14.5938 0.425214 18.0492 1.70848 20.6967 4.09009L21.5157 4.85543C23.2177 6.34666 25.4035 7.16876 27.6663 7.16876C29.9292 7.16876 32.115 6.34666 33.817 4.85543L34.398 4.32576C35.8213 3.19876 37.961 4.09943 38.1547 5.90309L38.1663 6.16676V27.1668C38.1663 27.477 38.1044 27.7842 37.9842 28.0703C37.864 28.3563 37.6879 28.6156 37.4663 28.8328C34.9234 31.3256 31.526 32.7557 27.9658 32.832C24.4056 32.9083 20.9501 31.625 18.3027 29.2434L17.4837 28.4781C15.8353 27.0338 13.7311 26.2156 11.54 26.167C9.3489 26.1183 7.21056 26.8423 5.49967 28.2121V43.5001C5.49902 44.0948 5.27129 44.6668 4.86303 45.0993C4.45477 45.5317 3.89678 45.792 3.30309 45.8268C2.70939 45.8617 2.12479 45.6685 1.66873 45.2868C1.21268 44.9051 0.919583 44.3637 0.849341 43.7731L0.833008 43.5001V6.16676Z" fill="white"/>
</svg>
