<svg width="26" height="26" viewBox="0 0 26 26" fill="none" xmlns="http://www.w3.org/2000/svg">
<g clip-path="url(#clip0_1_2739)">
<path d="M25 1H1V9.00002H25V1Z" fill="#0099B5"/>
<path d="M1 25H25V17H1V25Z" fill="#73AF00"/>
<path d="M25 9H1V17.0002H25V9Z" fill="white"/>
<mask id="path-6-inside-1_1_2739" fill="white">
<path d="M25 8.28906H1V9.28661H25V8.28906Z"/>
</mask>
<path d="M25 8.28906H1V9.28661H25V8.28906Z" fill="#FF4B55"/>
<path d="M1 8.28906V7.28906H0V8.28906H1ZM25 8.28906H26V7.28906H25V8.28906ZM25 9.28661V10.2866H26V9.28661H25ZM1 9.28661H0V10.2866H1V9.28661ZM1 8.28906V9.28906H25V8.28906V7.28906H1V8.28906ZM25 8.28906H24V9.28661H25H26V8.28906H25ZM25 9.28661V8.28661H1V9.28661V10.2866H25V9.28661ZM1 9.28661H2V8.28906H1H0V9.28661H1Z" fill="#CDD7C6" mask="url(#path-6-inside-1_1_2739)"/>
<mask id="path-8-inside-2_1_2739" fill="white">
<path d="M25 16.7129H1V17.7104H25V16.7129Z"/>
</mask>
<path d="M25 16.7129H1V17.7104H25V16.7129Z" fill="#FF4B55"/>
<path d="M1 16.7129V15.7129H0V16.7129H1ZM25 16.7129H26V15.7129H25V16.7129ZM25 17.7104V18.7104H26V17.7104H25ZM1 17.7104H0V18.7104H1V17.7104ZM1 16.7129V17.7129H25V16.7129V15.7129H1V16.7129ZM25 16.7129H24V17.7104H25H26V16.7129H25ZM25 17.7104V16.7104H1V17.7104V18.7104H25V17.7104ZM1 17.7104H2V16.7129H1H0V17.7104H1Z" fill="#CDD7C6" mask="url(#path-8-inside-2_1_2739)"/>
</g>
<rect x="0.5" y="0.5" width="25" height="25" rx="4.5" stroke="#121C25" stroke-opacity="0.06"/>
<defs>
<clipPath id="clip0_1_2739">
<rect x="1" y="1" width="24" height="24" rx="4" fill="white"/>
</clipPath>
</defs>
</svg>
