<svg width="27" height="26" viewBox="0 0 27 26" fill="none" xmlns="http://www.w3.org/2000/svg">
<path fill-rule="evenodd" clip-rule="evenodd" d="M18.9419 0.33366H7.86354C2.64488 0.33366 0.736084 2.24246 0.736084 7.46115V18.5397C0.736084 23.7582 2.64488 25.667 7.86354 25.667H18.9385C24.1571 25.667 26.0694 23.7582 26.0694 18.5397V7.46115C26.0694 2.24246 24.1606 0.33366 18.9419 0.33366Z" fill="white" fill-opacity="0.3"/>
<path d="M11.7883 15.0259H12.8043L12.2947 13.8408L11.7883 15.0259ZM11.5382 15.6233L11.2368 16.3129H10.5507L12.0099 13.0026H12.6027L14.056 16.3129H13.3515L13.0539 15.6233H11.5382ZM22.579 16.3106H23.2422V13.0026H22.579V16.3106ZM19.9398 14.8891H21.1619V14.2863H19.9398V13.6082H21.7139V13.0047H19.2768V16.3126H21.7779V15.7092H19.9398V14.8891ZM17.3048 15.2801L16.5528 13.0025H16.0046L15.2526 15.2801L14.5208 13.004H13.8056L14.96 16.3144H15.5163L16.2694 14.14L17.0222 16.3144H17.5835L18.735 13.004H18.0382L17.3048 15.2801ZM9.53843 14.8983C9.53843 15.4368 9.27097 15.7246 8.78537 15.7246C8.2971 15.7246 8.0283 15.4287 8.0283 14.8754V13.0044H7.35629V14.8983C7.35629 15.8301 7.87389 16.3643 8.77629 16.3643C9.68749 16.3643 10.2102 15.8199 10.2102 14.8709V13.0025H9.53843V14.8983ZM5.75283 13.0026H6.42456V16.3147H5.75283V14.9697H4.23522V16.3147H3.56323V13.0026H4.23522V14.3387H5.75283V13.0026Z" fill="white"/>
<path d="M13.4028 8.78516C11.0778 8.78516 9.18604 6.8934 9.18604 4.56833H9.78176C9.78176 6.56497 11.406 8.18945 13.4028 8.18945C15.3996 8.18945 17.0239 6.56497 17.0239 4.56833H17.6196C17.6196 6.8934 15.7279 8.78516 13.4028 8.78516Z" fill="white"/>
</svg>
