<svg width="18" height="17" viewBox="0 0 18 17" fill="none" xmlns="http://www.w3.org/2000/svg">
<path d="M11.5 4.33333C11.942 4.33333 12.366 4.50893 12.6785 4.82149C12.9911 5.13405 13.1667 5.55797 13.1667 6M11.5 1C12.8261 1 14.0979 1.52678 15.0355 2.46447C15.9732 3.40215 16.5 4.67392 16.5 6M3.16667 1.83333H6.5L8.16667 6L6.08333 7.25C6.9758 9.05961 8.44039 10.5242 10.25 11.4167L11.5 9.33333L15.6667 11V14.3333C15.6667 14.7754 15.4911 15.1993 15.1785 15.5118C14.866 15.8244 14.442 16 14 16C10.7494 15.8025 7.68346 14.4221 5.38069 12.1193C3.07792 9.81654 1.69754 6.75061 1.5 3.5C1.5 3.05797 1.67559 2.63405 1.98816 2.32149C2.30072 2.00893 2.72464 1.83333 3.16667 1.83333Z" stroke="#0653C9" stroke-width="2" stroke-linecap="round" stroke-linejoin="round"/>
</svg>
