<?xml version="1.0" encoding="UTF-8"?>
<svg version="1.1" xmlns="http://www.w3.org/2000/svg" width="512" height="512">
<path d="M0 0 C158.4 0 316.8 0 480 0 C480 118.8 480 237.6 480 360 C321.6 360 163.2 360 0 360 C0 241.2 0 122.4 0 0 Z " fill="#FEFDFD" transform="translate(16,76)"/>
<path d="M0 0 C66 0 132 0 200 0 C200 118.8 200 237.6 200 360 C134 360 68 360 0 360 C0 241.2 0 122.4 0 0 Z " fill="#FEFDFE" transform="translate(296,76)"/>
<path d="M0 0 C26.4 0 52.8 0 80 0 C80 118.8 80 237.6 80 360 C53.6 360 27.2 360 0 360 C0 241.2 0 122.4 0 0 Z " fill="#D80027" transform="translate(216,76)"/>
<path d="M0 0 C59.4 0 118.8 0 180 0 C180 26.4 180 52.8 180 80 C120.6 80 61.2 80 0 80 C0 53.6 0 27.2 0 0 Z " fill="#D80027" transform="translate(316,216)"/>
<path d="M0 0 C59.4 0 118.8 0 180 0 C180 26.4 180 52.8 180 80 C120.6 80 61.2 80 0 80 C0 53.6 0 27.2 0 0 Z " fill="#D80027" transform="translate(16,216)"/>
<path d="M0 0 C6.75688974 4.29983893 13.49834836 8.60604519 20.1875 13.0078125 C21.03098999 13.56230072 21.87447998 14.11678894 22.74353027 14.68807983 C25.49658282 16.4990297 28.24844666 18.31177315 31 20.125 C31.95962646 20.75704346 32.91925293 21.38908691 33.90795898 22.0402832 C49.05203306 32.01953597 64.11470168 42.11380383 79.13220215 52.2822876 C95.30850523 63.23239469 111.59365379 74.01147058 127.92773438 84.72460938 C128.8194635 85.31004517 129.71119263 85.89548096 130.62994385 86.49865723 C132.28445768 87.5845558 133.93978698 88.66921347 135.59613037 89.75231934 C140.14090637 92.73471698 144.64083931 95.75047009 149 99 C149 99.33 149 99.66 149 100 C99.83 100 50.66 100 0 100 C0 67 0 34 0 0 Z " fill="#0053B5" transform="translate(316,336)"/>
<path d="M0 0 C0 33 0 66 0 100 C-49.17 100 -98.34 100 -149 100 C-146.24857642 97.24857642 -144.30931991 95.3760937 -141.18920898 93.34399414 C-140.44565659 92.8561293 -139.70210419 92.36826447 -138.9360199 91.86561584 C-138.13084427 91.34406418 -137.32566864 90.82251251 -136.49609375 90.28515625 C-135.21600182 89.44705666 -135.21600182 89.44705666 -133.91004944 88.59202576 C-132.05995611 87.38102141 -130.20853934 86.17203704 -128.35595703 84.96484375 C-123.34324186 81.69739548 -118.34140123 78.41339953 -113.33984375 75.12890625 C-112.30914764 74.45231964 -111.27845154 73.77573303 -110.21652222 73.0786438 C-99.91754685 66.30760781 -89.7035558 59.41363698 -79.5 52.5 C-62.6235554 41.07015356 -45.64576199 29.80207765 -28.59960938 18.62695312 C-26.86052071 17.48591539 -25.12158351 16.34464674 -23.3828125 15.203125 C-22.15241241 14.39560791 -22.15241241 14.39560791 -20.89715576 13.57177734 C-14.93773963 9.64811683 -9.06170745 5.61919296 -3.23388672 1.50292969 C-1 0 -1 0 0 0 Z " fill="#0053B5" transform="translate(196,336)"/>
<path d="M0 0 C49.17 0 98.34 0 149 0 C146.24857642 2.75142358 144.30931991 4.6239063 141.18920898 6.65600586 C140.44565659 7.1438707 139.70210419 7.63173553 138.9360199 8.13438416 C137.72825645 8.91671165 137.72825645 8.91671165 136.49609375 9.71484375 C135.21600182 10.55294334 135.21600182 10.55294334 133.91004944 11.40797424 C132.05995611 12.61897859 130.20853934 13.82796296 128.35595703 15.03515625 C123.34324186 18.30260452 118.34140123 21.58660047 113.33984375 24.87109375 C111.79379959 25.88597366 111.79379959 25.88597366 110.21652222 26.9213562 C99.91754685 33.69239219 89.7035558 40.58636302 79.5 47.5 C62.6235554 58.92984644 45.64576199 70.19792235 28.59960938 81.37304688 C26.86052071 82.51408461 25.12158351 83.65535326 23.3828125 84.796875 C22.56254578 85.33521973 21.74227905 85.87356445 20.89715576 86.42822266 C14.93773963 90.35188317 9.06170745 94.38080704 3.23388672 98.49707031 C1 100 1 100 0 100 C0 67 0 34 0 0 Z " fill="#0053B5" transform="translate(316,76)"/>
<path d="M0 0 C49.17 0 98.34 0 149 0 C149 33 149 66 149 100 C142.24311026 95.70016107 135.50165164 91.39395481 128.8125 86.9921875 C127.96901001 86.43769928 127.12552002 85.88321106 126.25646973 85.31192017 C123.50341718 83.5009703 120.75155334 81.68822685 118 79.875 C117.04037354 79.24295654 116.08074707 78.61091309 115.09204102 77.9597168 C99.94796694 67.98046403 84.88529832 57.88619617 69.86779785 47.7177124 C53.69149477 36.76760531 37.40634621 25.98852942 21.07226562 15.27539062 C20.1805365 14.68995483 19.28880737 14.10451904 18.37005615 13.50134277 C16.71554232 12.4154442 15.06021302 11.33078653 13.40386963 10.24768066 C8.85909363 7.26528302 4.35916069 4.24952991 0 1 C0 0.67 0 0.34 0 0 Z " fill="#0053B5" transform="translate(47,76)"/>
<path d="M0 0 C6.80828579 -0.30819952 13.61473401 -0.5159839 20.4284668 -0.65917969 C22.73806937 -0.7189565 25.04722928 -0.80041702 27.35522461 -0.90527344 C43.17987645 -1.60538816 53.22120185 -0.27433829 65.21240234 10.4644165 C68.16169752 12.99792229 71.3879236 15.10545998 74.625 17.25 C75.34187988 17.74145508 76.05875977 18.23291016 76.79736328 18.73925781 C77.38243652 19.13983398 77.96750977 19.54041016 78.5703125 19.953125 C83.89795524 23.60988117 89.19787728 27.30638642 94.5 31 C100.98740076 35.51855618 107.47919644 40.0297636 114 44.5 C121.5255104 49.6589977 129.01199851 54.87352705 136.49853516 60.08886719 C142.11032204 63.99619585 147.73326113 67.88606904 153.375 71.75 C159.09119992 75.66785324 164.77336835 79.63223201 170.4375 83.625 C171.1785498 84.14674805 171.91959961 84.66849609 172.68310547 85.20605469 C173.70428467 85.92776855 173.70428467 85.92776855 174.74609375 86.6640625 C175.35122803 87.09154785 175.9563623 87.5190332 176.57983398 87.95947266 C178 89 178 89 179 90 C179.08783542 92.21855264 179.10694609 94.43988496 179.09765625 96.66015625 C179.09553383 97.65685585 179.09553383 97.65685585 179.09336853 98.6736908 C179.08775518 100.80333899 179.07520054 102.93288339 179.0625 105.0625 C179.05748671 106.50325369 179.05292351 107.94400903 179.04882812 109.38476562 C179.03778145 112.92321102 179.02050792 116.46159539 179 120 C168.56620082 113.44597076 158.28793263 106.65457263 148 99.875 C147.04037354 99.24295654 146.08074707 98.61091309 145.09204102 97.9597168 C129.93784559 87.97379453 114.86594128 77.87162403 99.83758545 67.6975708 C86.16676083 58.44535255 72.42216291 49.31262257 58.625 40.25 C45.1164159 31.37382288 31.6362344 22.45856666 18.23309326 13.42370605 C16.58709881 12.31423871 14.94033769 11.20590789 13.29278564 10.09875488 C11.04165037 8.58512328 8.79371218 7.0668769 6.546875 5.546875 C5.87737823 5.09735474 5.20788147 4.64783447 4.51809692 4.18469238 C2.9940206 3.14920068 1.49385878 2.07862767 0 1 C0 0.67 0 0.34 0 0 Z " fill="#D80229" transform="translate(317,316)"/>
<path d="M0 0 C0.29947601 4.10627682 0.51555839 8.20824798 0.65917969 12.32299805 C0.71908286 13.71767916 0.80066059 15.11162046 0.90527344 16.50366211 C1.24767834 21.18151728 1.23900319 25.42217595 0 30 C-3.46375539 33.97013395 -7.46030427 36.39323516 -12 39 C-13.51650297 40.03894813 -15.02431843 41.09079518 -16.51953125 42.16015625 C-17.94881829 43.1301177 -19.37984691 44.09751721 -20.8125 45.0625 C-22.45109568 46.17493498 -24.08908857 47.28825824 -25.7265625 48.40234375 C-27.00515137 49.27221924 -27.00515137 49.27221924 -28.30957031 50.15966797 C-33.12267788 53.45197331 -37.90402928 56.78984806 -42.6875 60.125 C-49.11211557 64.60234682 -55.54091427 69.07250293 -62 73.5 C-69.52771478 78.66045307 -77.0161932 83.87674389 -84.50512695 89.09326172 C-88.77173783 92.06376294 -93.03899628 95.03295134 -97.32421875 97.9765625 C-97.9299472 98.39324188 -98.53567566 98.80992126 -99.15975952 99.23922729 C-100.42203703 100.101877 -101.68892783 100.95786291 -102.96270752 101.80343628 C-106.55902955 104.21383219 -109.92422979 106.74152699 -113.21508789 109.55664062 C-126.9066191 120.83844003 -137.95192327 121.80239689 -155.25 120.875 C-157.56751626 120.80456568 -159.88524263 120.74072465 -162.203125 120.68359375 C-167.80677416 120.53141797 -173.40236191 120.29901209 -179 120 C-175.36695814 115.9357043 -171.03353822 113.22428113 -166.49609375 110.28515625 C-165.21600182 109.44705666 -165.21600182 109.44705666 -163.91004944 108.59202576 C-162.05995611 107.38102141 -160.20853934 106.17203704 -158.35595703 104.96484375 C-153.34324186 101.69739548 -148.34140123 98.41339953 -143.33984375 95.12890625 C-142.30914764 94.45231964 -141.27845154 93.77573303 -140.21652222 93.0786438 C-129.91754227 86.3076048 -119.70371982 79.41340057 -109.5 72.5 C-94.17106859 62.12007296 -78.75969784 51.8749446 -63.28305054 41.71670532 C-46.80508465 30.89820646 -30.44690151 19.90849456 -14.13867188 8.8359375 C-13.26143967 8.24146317 -12.38420746 7.64698883 -11.48039246 7.03450012 C-9.83424201 5.91877383 -8.18941199 4.80109616 -6.5460968 3.68119812 C-5.46524055 2.94894768 -5.46524055 2.94894768 -4.36254883 2.2019043 C-3.73359207 1.77419235 -3.10463531 1.34648041 -2.45661926 0.9058075 C-1 0 -1 0 0 0 Z " fill="#D80228" transform="translate(496,76)"/>
<path d="M0 0 C2.33124084 0.06033685 4.66263391 0.11506411 6.99414062 0.1640625 C12.64530959 0.29484395 18.29067096 0.49437765 23.9375 0.75 C20.30445814 4.8142957 15.97103822 7.52571887 11.43359375 10.46484375 C10.15350182 11.30294334 10.15350182 11.30294334 8.84754944 12.15797424 C6.99745611 13.36897859 5.14603934 14.57796296 3.29345703 15.78515625 C-1.71925814 19.05260452 -6.72109877 22.33660047 -11.72265625 25.62109375 C-12.75335236 26.29768036 -13.78404846 26.97426697 -14.84597778 27.6713562 C-25.14495773 34.4423952 -35.35878018 41.33659943 -45.5625 48.25 C-60.89143141 58.62992704 -76.30280216 68.8750554 -91.77944946 79.03329468 C-108.25741535 89.85179354 -124.61559849 100.84150544 -140.92382812 111.9140625 C-141.80106033 112.50853683 -142.67829254 113.10301117 -143.58210754 113.71549988 C-145.22825799 114.83122617 -146.87308801 115.94890384 -148.5164032 117.06880188 C-149.59725945 117.80105232 -149.59725945 117.80105232 -150.69995117 118.5480957 C-151.32890793 118.97580765 -151.95786469 119.40351959 -152.60588074 119.8441925 C-154.0625 120.75 -154.0625 120.75 -155.0625 120.75 C-157.40611789 95.35479695 -157.40611789 95.35479695 -153.89648438 88.45898438 C-150.71357893 84.87976385 -146.61731692 82.90608954 -142.33349609 80.89160156 C-138.30359392 78.86581973 -134.73453187 76.16542501 -131.0625 73.5625 C-129.45405006 72.46417922 -127.84330599 71.36921177 -126.23046875 70.27734375 C-120.58363587 66.43382963 -114.97840421 62.53144953 -109.375 58.625 C-102.95036185 54.14768528 -96.52158598 49.67749724 -90.0625 45.25 C-82.53696378 40.0910404 -75.0505011 34.87647268 -67.56396484 29.66113281 C-62.67276228 26.25552665 -57.77770536 22.85630695 -52.85986328 19.48925781 C-52.1429834 18.99780273 -51.42610352 18.50634766 -50.6875 18 C-50.13173782 17.63181152 -49.57597565 17.26362305 -49.00337219 16.88427734 C-45.65347017 14.63615633 -42.52241417 12.33162938 -39.51538086 9.63867188 C-27.14075599 -0.98757988 -15.73256355 -0.71475894 0 0 Z " fill="#D80228" transform="translate(171.0625,315.25)"/>
<path d="M0 0 C10.43379918 6.55402924 20.71206737 13.34542737 31 20.125 C31.95962646 20.75704346 32.91925293 21.38908691 33.90795898 22.0402832 C49.06215441 32.02620547 64.13405872 42.12837597 79.16241455 52.3024292 C92.83323917 61.55464745 106.57783709 70.68737743 120.375 79.75 C133.8835841 88.62617712 147.3637656 97.54143334 160.76690674 106.57629395 C162.41290119 107.68576129 164.05966231 108.79409211 165.70721436 109.90124512 C167.95834963 111.41487672 170.20628782 112.9331231 172.453125 114.453125 C173.12262177 114.90264526 173.79211853 115.35216553 174.48190308 115.81530762 C176.0059794 116.85079932 177.50614122 117.92137233 179 119 C179 119.33 179 119.66 179 120 C172.1364014 120.25602211 165.27405541 120.42967674 158.40673828 120.54931641 C156.07684329 120.59924503 153.74725577 120.66721673 151.41845703 120.75439453 C127.78277268 121.61627062 127.78277268 121.61627062 117.66796875 112.52197266 C116.78753906 111.68972168 115.90710938 110.8574707 115 110 C113.67001819 109.02779281 112.32087823 108.0802959 110.94140625 107.1796875 C110.10416016 106.60734375 110.10416016 106.60734375 109.25 106.0234375 C108.693125 105.64445312 108.13625 105.26546875 107.5625 104.875 C100.85128876 100.28382933 94.17181046 95.6482185 87.5 91 C81.01262148 86.48141219 74.52080332 81.97023624 68 77.5 C60.47231104 72.33950883 52.98380718 67.12325638 45.49487305 61.90673828 C39.94678519 58.04404673 34.38918987 54.19626488 28.8125 50.375 C22.5397266 46.07418895 16.29614649 41.73231834 10.0625 37.375 C9.17860596 36.75802246 8.29471191 36.14104492 7.3840332 35.50537109 C6.56765381 34.93383301 5.75127441 34.36229492 4.91015625 33.7734375 C4.17933838 33.26216309 3.44852051 32.75088867 2.69555664 32.22412109 C1 31 1 31 0 30 C-0.08783542 27.78144736 -0.10694609 25.56011504 -0.09765625 23.33984375 C-0.0962413 22.67537735 -0.09482635 22.01091095 -0.09336853 21.3263092 C-0.08775518 19.19666101 -0.07520054 17.06711661 -0.0625 14.9375 C-0.05748671 13.49674631 -0.05292351 12.05599097 -0.04882812 10.61523438 C-0.03778145 7.07678898 -0.02050792 3.53840461 0 0 Z " fill="#D80228" transform="translate(16,76)"/>
<path d="M0 0 C32.67 0 65.34 0 99 0 C99 23.1 99 46.2 99 70 C92.25655445 65.70871647 85.72203266 61.47030641 79.3125 56.75 C73.63442166 52.60951149 67.92855596 48.52538413 62.125 44.5625 C53.56478382 38.71621159 45.07694359 32.76908642 36.59082031 26.81591797 C33.98673732 24.99070413 31.38045761 23.16867198 28.7734375 21.34765625 C23.84465001 17.90456205 18.9203732 14.45510734 14 11 C13.26297852 10.4829248 12.52595703 9.96584961 11.76660156 9.43310547 C9.75829711 8.02177756 7.75346374 6.60568804 5.75 5.1875 C5.15912598 4.77274414 4.56825195 4.35798828 3.95947266 3.93066406 C2.62123562 2.97915589 1.30735995 1.99350698 0 1 C0 0.67 0 0.34 0 0 Z " fill="#0153B5" transform="translate(397,316)"/>
<path d="M0 0 C32.67 0 65.34 0 99 0 C93.37868481 5.62131519 93.37868481 5.62131519 90.05859375 7.83984375 C89.32068604 8.33798584 88.58277832 8.83612793 87.82250977 9.34936523 C87.03545654 9.87344971 86.24840332 10.39753418 85.4375 10.9375 C83.72589178 12.0927569 82.0149762 13.24904053 80.3046875 14.40625 C79.42651367 14.99921875 78.54833984 15.5921875 77.64355469 16.203125 C73.42090948 19.07333822 69.24075768 22.00319829 65.0625 24.9375 C64.23484131 25.51814209 63.40718262 26.09878418 62.55444336 26.69702148 C60.8747818 27.87566567 59.19533842 29.05462084 57.51611328 30.23388672 C53.34708128 33.16021871 49.17327683 36.07972658 45 39 C43.34113827 40.16144752 41.68228411 41.32290587 40.0234375 42.484375 C36.61326176 44.87163138 33.20163487 47.25679597 29.7890625 49.640625 C28.06764537 50.84365991 26.3462904 52.04678378 24.625 53.25 C23.38496216 54.1164917 23.38496216 54.1164917 22.11987305 55.00048828 C16.39561025 59.00650018 10.70019183 63.05091183 5.04736328 67.15722656 C1.10740027 70 1.10740027 70 0 70 C0 46.9 0 23.8 0 0 Z " fill="#0153B5" transform="translate(16,316)"/>
<path d="M0 0 C6.74344555 4.29128353 13.27796734 8.52969359 19.6875 13.25 C25.36557834 17.39048851 31.07144404 21.47461587 36.875 25.4375 C45.43521618 31.28378841 53.92305641 37.23091358 62.40917969 43.18408203 C65.01326268 45.00929587 67.61954239 46.83132802 70.2265625 48.65234375 C75.15534999 52.09543795 80.0796268 55.54489266 85 59 C85.73702148 59.5170752 86.47404297 60.03415039 87.23339844 60.56689453 C89.24170289 61.97822244 91.24653626 63.39431196 93.25 64.8125 C93.84087402 65.22725586 94.43174805 65.64201172 95.04052734 66.06933594 C96.37876438 67.02084411 97.69264005 68.00649302 99 69 C99 69.33 99 69.66 99 70 C66.33 70 33.66 70 0 70 C0 46.9 0 23.8 0 0 Z " fill="#0153B5" transform="translate(16,126)"/>
<path d="M0 0 C0 23.1 0 46.2 0 70 C-32.67 70 -65.34 70 -99 70 C-93.37868481 64.37868481 -93.37868481 64.37868481 -90.05859375 62.16015625 C-89.32068604 61.66201416 -88.58277832 61.16387207 -87.82250977 60.65063477 C-86.64192993 59.86450806 -86.64192993 59.86450806 -85.4375 59.0625 C-83.72589178 57.9072431 -82.0149762 56.75095947 -80.3046875 55.59375 C-79.42651367 55.00078125 -78.54833984 54.4078125 -77.64355469 53.796875 C-73.42090948 50.92666178 -69.24075768 47.99680171 -65.0625 45.0625 C-64.23484131 44.48185791 -63.40718262 43.90121582 -62.55444336 43.30297852 C-60.8747818 42.12433433 -59.19533842 40.94537916 -57.51611328 39.76611328 C-53.34708128 36.83978129 -49.17327683 33.92027342 -45 31 C-43.34113827 29.83855248 -41.68228411 28.67709413 -40.0234375 27.515625 C-36.61326176 25.12836862 -33.20163487 22.74320403 -29.7890625 20.359375 C-28.06764537 19.15634009 -26.3462904 17.95321622 -24.625 16.75 C-23.79830811 16.17233887 -22.97161621 15.59467773 -22.11987305 14.99951172 C-16.39561025 10.99349982 -10.70019183 6.94908817 -5.04736328 2.84277344 C-1.10740027 0 -1.10740027 0 0 0 Z " fill="#0153B5" transform="translate(496,126)"/>
</svg>
