<svg width="24" height="24" viewBox="0 0 24 24" fill="none" xmlns="http://www.w3.org/2000/svg">
<path d="M22.2026 4.13794H1.79742C0.804703 4.13794 0 4.94264 0 5.93536V8.91375H24V5.93536C24 4.94264 23.1953 4.13794 22.2026 4.13794Z" fill="#82AFFF"/>
<path d="M0 18.0646C0 19.0572 0.804703 19.862 1.79742 19.862H22.2026C23.1952 19.862 24 19.0573 24 18.0646V15.0862H0V18.0646Z" fill="#73AF00"/>
<path d="M24 9.56714H0V14.4323H24V9.56714Z" fill="#F5F5F5"/>
<path d="M0 9.37943V9.5674H24V9.37943V8.91382H0V9.37943Z" fill="#FF4B55"/>
<path d="M0 14.6208V15.0864H24V14.6208V14.4329H0V14.6208Z" fill="#FF4B55"/>
<path d="M5.31993 8.06578C4.47281 8.06578 3.78614 7.38075 3.78614 6.53667C3.78614 5.6895 4.47276 5.00137 5.31993 5.00137C5.32322 5.00137 5.3264 5.00137 5.32959 5.00142C5.37947 5.00207 5.39695 4.93584 5.35298 4.91226C5.09212 4.77243 4.79442 4.69331 4.47792 4.69561C3.46429 4.70282 2.64093 5.54278 2.65172 6.5564C2.66231 7.55958 3.48243 8.37159 4.49118 8.37159C4.80333 8.37159 5.09686 8.29261 5.35448 8.1547C5.39831 8.13122 5.38059 8.06498 5.3309 8.06568C5.32715 8.06578 5.32354 8.06578 5.31993 8.06578Z" fill="#F5F5F5"/>
<path d="M6.52128 7.64298L6.45279 7.84839L6.23628 7.85003C6.20825 7.85021 6.19662 7.88603 6.21917 7.90267L6.39336 8.03129L6.32801 8.23773C6.31958 8.26445 6.35 8.28657 6.37283 8.27026L6.54898 8.14436L6.72514 8.27026C6.74797 8.28657 6.77834 8.26445 6.76995 8.23773L6.70461 8.03129L6.87875 7.90267C6.9013 7.88603 6.88967 7.85021 6.86164 7.85003L6.64512 7.84839L6.57664 7.64298C6.56778 7.6164 6.53019 7.6164 6.52128 7.64298Z" fill="#F5F5F5"/>
<path d="M8.04667 7.64298L7.97819 7.84839L7.76167 7.85003C7.73364 7.85021 7.72201 7.88603 7.74456 7.90267L7.9187 8.03129L7.85336 8.23773C7.84492 8.26445 7.87534 8.28657 7.89817 8.27026L8.07433 8.14436L8.25048 8.27026C8.27331 8.28657 8.30369 8.26445 8.2953 8.23773L8.22995 8.03129L8.40409 7.90267C8.42664 7.88603 8.41501 7.85021 8.38698 7.85003L8.17047 7.84839L8.10198 7.64298C8.09312 7.6164 8.05548 7.6164 8.04667 7.64298Z" fill="#F5F5F5"/>
<path d="M9.57182 7.64298L9.50333 7.84839L9.28682 7.85003C9.25879 7.85021 9.24716 7.88603 9.26971 7.90267L9.44389 8.03129L9.37855 8.23773C9.37011 8.26445 9.40054 8.28657 9.42336 8.27026L9.59952 8.14436L9.77568 8.27026C9.7985 8.28657 9.82888 8.26445 9.82049 8.23773L9.75514 8.03129L9.92929 7.90267C9.95183 7.88603 9.94021 7.85021 9.91218 7.85003L9.69566 7.84839L9.62718 7.64298C9.61832 7.6164 9.58068 7.6164 9.57182 7.64298Z" fill="#F5F5F5"/>
<path d="M11.0972 7.64298L11.0287 7.84839L10.8122 7.85003C10.7842 7.85021 10.7726 7.88603 10.7951 7.90267L10.9692 8.03129L10.9039 8.23773C10.8955 8.26445 10.9259 8.28657 10.9487 8.27026L11.1249 8.14436L11.301 8.27026C11.3238 8.28657 11.3542 8.26445 11.3458 8.23773L11.2805 8.03129L11.4546 7.90267C11.4772 7.88603 11.4656 7.85021 11.4375 7.85003L11.221 7.84839L11.1525 7.64298C11.1437 7.6164 11.1061 7.6164 11.0972 7.64298Z" fill="#F5F5F5"/>
<path d="M12.6226 7.64298L12.5541 7.84839L12.3376 7.85003C12.3096 7.85021 12.2979 7.88603 12.3205 7.90267L12.4947 8.03129L12.4293 8.23773C12.4209 8.26445 12.4513 8.28657 12.4741 8.27026L12.6503 8.14436L12.8265 8.27026C12.8493 8.28657 12.8797 8.26445 12.8713 8.23773L12.8059 8.03129L12.9801 7.90267C13.0027 7.88603 12.991 7.85021 12.963 7.85003L12.7465 7.84839L12.678 7.64298C12.6691 7.6164 12.6315 7.6164 12.6226 7.64298Z" fill="#F5F5F5"/>
<path d="M8.04667 6.21922L7.97819 6.42463L7.76167 6.42627C7.73364 6.42646 7.72201 6.46227 7.74456 6.47891L7.9187 6.60754L7.85336 6.81397C7.84492 6.84069 7.87534 6.86282 7.89817 6.8465L8.07433 6.7206L8.25048 6.8465C8.27331 6.86282 8.30369 6.84069 8.2953 6.81397L8.22995 6.60754L8.40409 6.47891C8.42664 6.46227 8.41501 6.42646 8.38698 6.42627L8.17047 6.42463L8.10198 6.21922C8.09312 6.19255 8.05548 6.19255 8.04667 6.21922Z" fill="#F5F5F5"/>
<path d="M9.57182 6.21922L9.50333 6.42463L9.28682 6.42627C9.25879 6.42646 9.24716 6.46227 9.26971 6.47891L9.44389 6.60754L9.37855 6.81397C9.37011 6.84069 9.40054 6.86282 9.42336 6.8465L9.59952 6.7206L9.77568 6.8465C9.7985 6.86282 9.82888 6.84069 9.82049 6.81397L9.75514 6.60754L9.92929 6.47891C9.95183 6.46227 9.94021 6.42646 9.91218 6.42627L9.69566 6.42463L9.62718 6.21922C9.61832 6.19255 9.58068 6.19255 9.57182 6.21922Z" fill="#F5F5F5"/>
<path d="M11.0972 6.21922L11.0287 6.42463L10.8122 6.42627C10.7842 6.42646 10.7726 6.46227 10.7951 6.47891L10.9692 6.60754L10.9039 6.81397C10.8955 6.84069 10.9259 6.86282 10.9487 6.8465L11.1249 6.7206L11.301 6.8465C11.3238 6.86282 11.3542 6.84069 11.3458 6.81397L11.2805 6.60754L11.4546 6.47891C11.4772 6.46227 11.4656 6.42646 11.4375 6.42627L11.221 6.42463L11.1525 6.21922C11.1437 6.19255 11.1061 6.19255 11.0972 6.21922Z" fill="#F5F5F5"/>
<path d="M12.6226 6.21922L12.5541 6.42463L12.3376 6.42627C12.3096 6.42646 12.2979 6.46227 12.3205 6.47891L12.4947 6.60754L12.4293 6.81397C12.4209 6.84069 12.4513 6.86282 12.4741 6.8465L12.6503 6.7206L12.8265 6.8465C12.8493 6.86282 12.8797 6.84069 12.8713 6.81397L12.8059 6.60754L12.9801 6.47891C13.0027 6.46227 12.991 6.42646 12.963 6.42627L12.7465 6.42463L12.678 6.21922C12.6691 6.19255 12.6315 6.19255 12.6226 6.21922Z" fill="#F5F5F5"/>
<path d="M9.57182 7.64298L9.50333 7.84839L9.28682 7.85003C9.25879 7.85021 9.24716 7.88603 9.26971 7.90267L9.44389 8.03129L9.37855 8.23773C9.37011 8.26445 9.40054 8.28657 9.42336 8.27026L9.59952 8.14436L9.77568 8.27026C9.7985 8.28657 9.82888 8.26445 9.82049 8.23773L9.75514 8.03129L9.92929 7.90267C9.95183 7.88603 9.94021 7.85021 9.91218 7.85003L9.69566 7.84839L9.62718 7.64298C9.61832 7.6164 9.58068 7.6164 9.57182 7.64298Z" fill="#F5F5F5"/>
<path d="M9.57182 4.79557L9.50333 5.00097L9.28682 5.00262C9.25879 5.0028 9.24716 5.03862 9.26971 5.05526L9.44389 5.18388L9.37855 5.39032C9.37011 5.41704 9.40054 5.43916 9.42336 5.42285L9.59952 5.29694L9.77568 5.42285C9.7985 5.43916 9.82888 5.41704 9.82049 5.39032L9.75514 5.18388L9.92929 5.05526C9.95183 5.03862 9.94021 5.0028 9.91218 5.00262L9.69566 5.00097L9.62718 4.79557C9.61832 4.76899 9.58068 4.76899 9.57182 4.79557Z" fill="#F5F5F5"/>
<path d="M11.0972 7.64298L11.0287 7.84839L10.8122 7.85003C10.7842 7.85021 10.7726 7.88603 10.7951 7.90267L10.9692 8.03129L10.9039 8.23773C10.8955 8.26445 10.9259 8.28657 10.9487 8.27026L11.1249 8.14436L11.301 8.27026C11.3238 8.28657 11.3542 8.26445 11.3458 8.23773L11.2805 8.03129L11.4546 7.90267C11.4772 7.88603 11.4656 7.85021 11.4375 7.85003L11.221 7.84839L11.1525 7.64298C11.1437 7.6164 11.1061 7.6164 11.0972 7.64298Z" fill="#F5F5F5"/>
<path d="M12.6226 7.64298L12.5541 7.84839L12.3376 7.85003C12.3096 7.85021 12.2979 7.88603 12.3205 7.90267L12.4947 8.03129L12.4293 8.23773C12.4209 8.26445 12.4513 8.28657 12.4741 8.27026L12.6503 8.14436L12.8265 8.27026C12.8493 8.28657 12.8797 8.26445 12.8713 8.23773L12.8059 8.03129L12.9801 7.90267C13.0027 7.88603 12.991 7.85021 12.963 7.85003L12.7465 7.84839L12.678 7.64298C12.6691 7.6164 12.6315 7.6164 12.6226 7.64298Z" fill="#F5F5F5"/>
<path d="M11.0972 4.79557L11.0287 5.00097L10.8122 5.00262C10.7842 5.0028 10.7726 5.03862 10.7951 5.05526L10.9692 5.18388L10.9039 5.39032C10.8955 5.41704 10.9259 5.43916 10.9487 5.42285L11.1249 5.29694L11.301 5.42285C11.3238 5.43916 11.3542 5.41704 11.3458 5.39032L11.2805 5.18388L11.4546 5.05526C11.4772 5.03862 11.4656 5.0028 11.4375 5.00262L11.221 5.00097L11.1525 4.79557C11.1437 4.76899 11.1061 4.76899 11.0972 4.79557Z" fill="#F5F5F5"/>
<path d="M12.6226 4.79557L12.5541 5.00097L12.3376 5.00262C12.3096 5.0028 12.2979 5.03862 12.3205 5.05526L12.4947 5.18388L12.4293 5.39032C12.4209 5.41704 12.4513 5.43916 12.4741 5.42285L12.6503 5.29694L12.8265 5.42285C12.8493 5.43916 12.8797 5.41704 12.8713 5.39032L12.8059 5.18388L12.9801 5.05526C13.0027 5.03862 12.991 5.0028 12.963 5.00262L12.7465 5.00097L12.678 4.79557C12.6691 4.76899 12.6315 4.76899 12.6226 4.79557Z" fill="#F5F5F5"/>
</svg>
