<svg width="56" height="56" viewBox="0 0 56 56" fill="none" xmlns="http://www.w3.org/2000/svg">
<path fill-rule="evenodd" clip-rule="evenodd" d="M28.6598 36.0454C25.785 37.6554 22.545 38.5006 19.25 38.5C16.1 38.5 13.125 37.744 10.5 36.4V43.75C10.5 46.0706 11.4219 48.2962 13.0628 49.9372C14.7038 51.5781 16.9294 52.5 19.25 52.5H31.5V42C31.5 39.2152 32.6062 36.5445 34.5754 34.5754C36.5445 32.6062 39.2152 31.5 42 31.5H52.5V19.25C52.5 16.9294 51.5781 14.7038 49.9372 13.0628C48.2962 11.4219 46.0706 10.5 43.75 10.5H36.4C37.8977 13.4349 38.617 16.7052 38.489 19.9977C38.3611 23.2902 37.3901 26.4947 35.6691 29.3045C33.9481 32.1143 31.5346 34.4353 28.6598 36.0454ZM37.961 50.9635C37.16 51.7647 36.1213 52.2853 35 52.4475V42C35 40.1435 35.7375 38.363 37.0503 37.0503C38.363 35.7375 40.1435 35 42 35H52.4475C52.2853 36.1213 51.7647 37.16 50.9635 37.961L37.961 50.9635Z" fill="#0A56CB"/>
<path fill-rule="evenodd" clip-rule="evenodd" d="M35 19.25C35 23.4272 33.3406 27.4332 30.3869 30.3869C27.4332 33.3406 23.4272 35 19.25 35C15.0728 35 11.0668 33.3406 8.11307 30.3869C5.15937 27.4332 3.5 23.4272 3.5 19.25C3.5 15.0728 5.15937 11.0668 8.11307 8.11307C11.0668 5.15937 15.0728 3.5 19.25 3.5C23.4272 3.5 27.4332 5.15937 30.3869 8.11307C33.3406 11.0668 35 15.0728 35 19.25ZM20.4874 11.0126C20.8156 11.3408 21 11.7859 21 12.25V17.5H26.25C26.7141 17.5 27.1593 17.6844 27.4874 18.0126C27.8156 18.3408 28 18.7859 28 19.25C28 19.7141 27.8156 20.1592 27.4874 20.4874C27.1593 20.8156 26.7141 21 26.25 21H21V26.25C21 26.7141 20.8156 27.1593 20.4874 27.4874C20.1592 27.8156 19.7141 28 19.25 28C18.7859 28 18.3408 27.8156 18.0126 27.4874C17.6844 27.1593 17.5 26.7141 17.5 26.25V21H12.25C11.7859 21 11.3408 20.8156 11.0126 20.4874C10.6844 20.1592 10.5 19.7141 10.5 19.25C10.5 18.7859 10.6844 18.3408 11.0126 18.0126C11.3408 17.6844 11.7859 17.5 12.25 17.5H17.5V12.25C17.5 11.7859 17.6844 11.3408 18.0126 11.0126C18.3408 10.6844 18.7859 10.5 19.25 10.5C19.7141 10.5 20.1592 10.6844 20.4874 11.0126Z" fill="#0A56CB" fill-opacity="0.4"/>
</svg>
