<svg width="48" height="48" viewBox="0 0 48 48" fill="none" xmlns="http://www.w3.org/2000/svg">
<path fill-rule="evenodd" clip-rule="evenodd" d="M11.2002 12.8002V35.2002C11.2002 37.8512 13.3492 40.0002 16.0002 40.0002H32.0002C34.6512 40.0002 36.8002 37.8512 36.8002 35.2002V19.2002C36.8002 16.5492 34.6512 14.4002 32.0002 14.4002H12.8002C11.9165 14.4002 11.2002 13.6839 11.2002 12.8002ZM16.4002 24.0002C16.4002 23.3375 16.9375 22.8002 17.6002 22.8002H30.4002C31.0629 22.8002 31.6002 23.3375 31.6002 24.0002C31.6002 24.6629 31.0629 25.2002 30.4002 25.2002H17.6002C16.9375 25.2002 16.4002 24.6629 16.4002 24.0002ZM16.4002 29.6002C16.4002 28.9375 16.9375 28.4002 17.6002 28.4002H26.4002C27.0629 28.4002 27.6002 28.9375 27.6002 29.6002C27.6002 30.2629 27.0629 30.8002 26.4002 30.8002H17.6002C16.9375 30.8002 16.4002 30.2629 16.4002 29.6002Z" fill="white"/>
<path d="M11.8543 11.3396C12.4118 11.5896 12.8002 12.1495 12.8002 12.8002H32.0002C32.5527 12.8002 33.0888 12.8702 33.6002 13.0018V11.6899C33.6002 9.7425 31.8754 8.24662 29.9476 8.52202L12.6715 10.99C12.3636 11.034 12.0845 11.1582 11.8543 11.3396Z" fill="white"/>
</svg>
