<svg width="32" height="32" viewBox="0 0 32 32" fill="none" xmlns="http://www.w3.org/2000/svg">
<g clip-path="url(#clip0_1474_7492)">
<path d="M17.3733 2.49331L2.72 0.266641C2.04 0.159974 1.34667 0.346641 0.826667 0.786641C0.306667 1.23997 0 1.89331 0 2.57331V30.6666C0 31.4 0.6 32 1.33333 32H5.66667V25C5.66667 23.7066 6.70667 22.6666 8 22.6666H11.3333C12.6267 22.6666 13.6667 23.7066 13.6667 25V32H19.3333V4.79997C19.3333 3.65331 18.5067 2.67997 17.3733 2.49331ZM7.33333 19.6666H5.33333C4.78133 19.6666 4.33333 19.2186 4.33333 18.6666C4.33333 18.1146 4.78133 17.6666 5.33333 17.6666H7.33333C7.88533 17.6666 8.33333 18.1146 8.33333 18.6666C8.33333 19.2186 7.88533 19.6666 7.33333 19.6666ZM7.33333 15.6666H5.33333C4.78133 15.6666 4.33333 15.2186 4.33333 14.6666C4.33333 14.1146 4.78133 13.6666 5.33333 13.6666H7.33333C7.88533 13.6666 8.33333 14.1146 8.33333 14.6666C8.33333 15.2186 7.88533 15.6666 7.33333 15.6666ZM7.33333 11.6666H5.33333C4.78133 11.6666 4.33333 11.2186 4.33333 10.6666C4.33333 10.1146 4.78133 9.66664 5.33333 9.66664H7.33333C7.88533 9.66664 8.33333 10.1146 8.33333 10.6666C8.33333 11.2186 7.88533 11.6666 7.33333 11.6666ZM7.33333 7.66664H5.33333C4.78133 7.66664 4.33333 7.21864 4.33333 6.66664C4.33333 6.11464 4.78133 5.66664 5.33333 5.66664H7.33333C7.88533 5.66664 8.33333 6.11464 8.33333 6.66664C8.33333 7.21864 7.88533 7.66664 7.33333 7.66664ZM14 19.6666H12C11.448 19.6666 11 19.2186 11 18.6666C11 18.1146 11.448 17.6666 12 17.6666H14C14.552 17.6666 15 18.1146 15 18.6666C15 19.2186 14.552 19.6666 14 19.6666ZM14 15.6666H12C11.448 15.6666 11 15.2186 11 14.6666C11 14.1146 11.448 13.6666 12 13.6666H14C14.552 13.6666 15 14.1146 15 14.6666C15 15.2186 14.552 15.6666 14 15.6666ZM14 11.6666H12C11.448 11.6666 11 11.2186 11 10.6666C11 10.1146 11.448 9.66664 12 9.66664H14C14.552 9.66664 15 10.1146 15 10.6666C15 11.2186 14.552 11.6666 14 11.6666ZM14 7.66664H12C11.448 7.66664 11 7.21864 11 6.66664C11 6.11464 11.448 5.66664 12 5.66664H14C14.552 5.66664 15 6.11464 15 6.66664C15 7.21864 14.552 7.66664 14 7.66664Z" fill="#0653C9"/>
<path d="M30.16 14.456L20.6666 12.468V32H29.6666C30.9533 32 32 30.9534 32 29.6667V16.736C32 15.6347 31.2493 14.6974 30.16 14.456ZM27 28H25C24.448 28 24 27.552 24 27C24 26.448 24.448 26 25 26H27C27.552 26 28 26.448 28 27C28 27.552 27.552 28 27 28ZM27 24H25C24.448 24 24 23.552 24 23C24 22.448 24.448 22 25 22H27C27.552 22 28 22.448 28 23C28 23.552 27.552 24 27 24ZM27 20H25C24.448 20 24 19.552 24 19C24 18.448 24.448 18 25 18H27C27.552 18 28 18.448 28 19C28 19.552 27.552 20 27 20Z" fill="#0653C9" fill-opacity="0.5"/>
</g>
<defs>
<clipPath id="clip0_1474_7492">
<rect width="32" height="32" fill="white"/>
</clipPath>
</defs>
</svg>
