<svg width="28" height="28" viewBox="0 0 28 28" fill="none" xmlns="http://www.w3.org/2000/svg">
<path d="M23 6.00009H27.41L22 0.590088V5.00009C22 5.2653 22.1054 5.51966 22.2929 5.70719C22.4804 5.89473 22.7348 6.00009 23 6.00009Z" fill="#0653C9" fill-opacity="0.5"/>
<path d="M23 8C22.2044 8 21.4413 7.68393 20.8787 7.12132C20.3161 6.55871 20 5.79565 20 5V0H9C8.20435 0 7.44129 0.316071 6.87868 0.87868C6.31607 1.44129 6 2.20435 6 3V6C7.53554 6.00362 9.03759 6.44909 10.3268 7.28322C11.6161 8.11734 12.638 9.30488 13.2706 10.704C13.9033 12.1032 14.1198 13.6549 13.8945 15.1738C13.6692 16.6927 13.0115 18.1147 12 19.27V27C12.0013 27.3415 11.9403 27.6804 11.82 28H25C25.7956 28 26.5587 27.6839 27.1213 27.1213C27.6839 26.5587 28 25.7956 28 25V8H23ZM13 7C13 6.73478 13.1054 6.48043 13.2929 6.29289C13.4804 6.10536 13.7348 6 14 6H17C17.2652 6 17.5196 6.10536 17.7071 6.29289C17.8946 6.48043 18 6.73478 18 7C18 7.26522 17.8946 7.51957 17.7071 7.70711C17.5196 7.89464 17.2652 8 17 8H14C13.7348 8 13.4804 7.89464 13.2929 7.70711C13.1054 7.51957 13 7.26522 13 7ZM23 23H15C14.7348 23 14.4804 22.8946 14.2929 22.7071C14.1054 22.5196 14 22.2652 14 22C14 21.7348 14.1054 21.4804 14.2929 21.2929C14.4804 21.1054 14.7348 21 15 21H23C23.2652 21 23.5196 21.1054 23.7071 21.2929C23.8946 21.4804 24 21.7348 24 22C24 22.2652 23.8946 22.5196 23.7071 22.7071C23.5196 22.8946 23.2652 23 23 23ZM23 18H17C16.7348 18 16.4804 17.8946 16.2929 17.7071C16.1054 17.5196 16 17.2652 16 17C16 16.7348 16.1054 16.4804 16.2929 16.2929C16.4804 16.1054 16.7348 16 17 16H23C23.2652 16 23.5196 16.1054 23.7071 16.2929C23.8946 16.4804 24 16.7348 24 17C24 17.2652 23.8946 17.5196 23.7071 17.7071C23.5196 17.8946 23.2652 18 23 18ZM23 13H17C16.7348 13 16.4804 12.8946 16.2929 12.7071C16.1054 12.5196 16 12.2652 16 12C16 11.7348 16.1054 11.4804 16.2929 11.2929C16.4804 11.1054 16.7348 11 17 11H23C23.2652 11 23.5196 11.1054 23.7071 11.2929C23.8946 11.4804 24 11.7348 24 12C24 12.2652 23.8946 12.5196 23.7071 12.7071C23.5196 12.8946 23.2652 13 23 13Z" fill="#0653C9" fill-opacity="0.5"/>
<path d="M2 20.9199V26.9999C2.00099 27.1973 2.06039 27.3901 2.17072 27.5538C2.28105 27.7175 2.43738 27.8449 2.62 27.9199C2.80211 27.9965 3.00282 28.0174 3.19681 27.98C3.3908 27.9427 3.56938 27.8487 3.71 27.7099L6 25.4099L8.29 27.7099C8.38344 27.8026 8.49426 27.8759 8.61609 27.9257C8.73793 27.9755 8.86839 28.0007 9 27.9999C9.13118 28.0033 9.26132 27.9759 9.38 27.9199C9.56262 27.8449 9.71895 27.7175 9.82928 27.5538C9.93961 27.3901 9.99901 27.1973 10 26.9999V20.9199C8.78552 21.627 7.40532 21.9995 6 21.9995C4.59468 21.9995 3.21448 21.627 2 20.9199Z" fill="#0653C9"/>
<path d="M6 20C9.31371 20 12 17.3137 12 14C12 10.6863 9.31371 8 6 8C2.68629 8 0 10.6863 0 14C0 17.3137 2.68629 20 6 20Z" fill="#0653C9"/>
</svg>
