<svg width="32" height="32" viewBox="0 0 32 32" fill="none" xmlns="http://www.w3.org/2000/svg">
<g clip-path="url(#clip0_1474_7475)">
<path d="M16.8 23.1778C16.8 25.4057 15.915 27.5422 14.3397 29.1175C12.7644 30.6928 10.6278 31.5778 8.4 31.5778C6.17218 31.5778 4.03561 30.6928 2.4603 29.1175C0.884998 27.5422 0 25.4057 0 23.1778C0 20.95 0.884998 18.8134 2.4603 17.2381C4.03561 15.6628 6.17218 14.7778 8.4 14.7778C10.6278 14.7778 12.7644 15.6628 14.3397 17.2381C15.915 18.8134 16.8 20.95 16.8 23.1778ZM12.7941 19.717C12.7074 19.6301 12.6044 19.5612 12.4911 19.5141C12.3777 19.4671 12.2561 19.4428 12.1333 19.4428C12.0106 19.4428 11.889 19.4671 11.7756 19.5141C11.6622 19.5612 11.5592 19.6301 11.4725 19.717L6.53334 24.6581L5.32747 23.4504C5.15221 23.2751 4.91452 23.1767 4.66667 23.1767C4.41882 23.1767 4.18112 23.2751 4.00587 23.4504C3.83061 23.6256 3.73216 23.8633 3.73216 24.1112C3.73216 24.359 3.83061 24.5967 4.00587 24.772L5.87254 26.6386C5.95924 26.7256 6.06223 26.7945 6.17562 26.8416C6.28901 26.8886 6.41057 26.9128 6.53334 26.9128C6.6561 26.9128 6.77766 26.8886 6.89105 26.8416C7.00444 26.7945 7.10744 26.7256 7.19414 26.6386L12.7941 21.0386C12.8811 20.9519 12.95 20.8489 12.9971 20.7356C13.0441 20.6222 13.0683 20.5006 13.0683 20.3778C13.0683 20.2551 13.0441 20.1335 12.9971 20.0201C12.95 19.9067 12.8811 19.8037 12.7941 19.717Z" fill="#0653C9"/>
<path d="M16.8 0V8.4C16.8 9.14261 17.095 9.8548 17.6201 10.3799C18.1452 10.905 18.8574 11.2 19.6 11.2H28V27.0667C28 27.8093 27.705 28.5215 27.1799 29.0466C26.6548 29.5717 25.9426 29.8667 25.2 29.8667H16.3202C17.7144 28.1784 18.5323 26.0886 18.6545 23.9025C18.7767 21.7164 18.1969 19.5485 16.9996 17.7153C15.8023 15.8821 14.0503 14.4798 11.9994 13.713C9.94855 12.9462 7.70626 12.8551 5.59998 13.4531V2.8C5.59998 2.05739 5.89497 1.3452 6.42008 0.820101C6.94518 0.294999 7.65737 0 8.39998 0H16.8ZM18.6666 0.466667V8.4C18.6666 8.64754 18.765 8.88494 18.94 9.05997C19.1151 9.235 19.3524 9.33334 19.6 9.33334H27.5333L18.6666 0.466667Z" fill="#0653C9" fill-opacity="0.5"/>
</g>
<defs>
<clipPath id="clip0_1474_7475">
<rect width="32" height="32" fill="white"/>
</clipPath>
</defs>
</svg>
