<svg width="32" height="32" viewBox="0 0 32 32" fill="none" xmlns="http://www.w3.org/2000/svg">
<path d="M14.4533 21.6801C18.48 22.4401 21.3333 24.3868 21.3333 26.6668V29.3334H0V26.6668C0 24.3868 2.85333 22.4401 6.88 21.6801L10.6667 28.0001L14.4533 21.6801ZM5.33333 10.6668H16V13.3334C16 14.7479 15.4381 16.1045 14.4379 17.1047C13.4377 18.1049 12.0812 18.6668 10.6667 18.6668C9.25218 18.6668 7.89562 18.1049 6.89543 17.1047C5.89524 16.1045 5.33333 14.7479 5.33333 13.3334V10.6668ZM5.33333 9.33343L5.88 3.86677C5.91317 3.53673 6.06815 3.23091 6.3147 3.00902C6.56124 2.78713 6.88164 2.6651 7.21333 2.66676H14.1333C14.8133 2.66676 15.3867 3.18676 15.4533 3.86677L16 9.33343H5.33333ZM10.6667 4.0001H9.33333V5.33343H8V6.66677H9.33333V8.0001H10.6667V6.66677H12V5.33343H10.6667V4.0001Z" fill="#0653C9"/>
<path d="M23.5066 23.5933C26.5266 24.1633 28.6666 25.6233 28.6666 27.3333V29.3333H12.6666V27.3333C12.6666 25.6233 14.8066 24.1633 17.8266 23.5933L20.6666 28.3333L23.5066 23.5933ZM16.6666 15.3333H24.6666V17.3333C24.6666 18.3941 24.2452 19.4115 23.4951 20.1617C22.7449 20.9118 21.7275 21.3333 20.6666 21.3333C19.6058 21.3333 18.5883 20.9118 17.8382 20.1617C17.0881 19.4115 16.6666 18.3941 16.6666 17.3333V15.3333ZM16.6666 14.3333L17.0766 10.2333C17.1015 9.98574 17.2177 9.75638 17.4026 9.58996C17.5876 9.42354 17.8279 9.33202 18.0766 9.33326H23.2666C23.7766 9.33326 24.2066 9.72326 24.2566 10.2333L24.6666 14.3333H16.6666ZM20.6666 10.3333H19.6666V11.3333H18.6666V12.3333H19.6666V13.3333H20.6666V12.3333H21.6666V11.3333H20.6666V10.3333Z" fill="#0653C9" fill-opacity="0.5"/>
</svg>
