<svg width="18" height="14" viewBox="0 0 18 14" fill="none" xmlns="http://www.w3.org/2000/svg">
<path d="M1.5 2.83317C1.5 2.39114 1.67559 1.96722 1.98816 1.65466C2.30072 1.3421 2.72464 1.1665 3.16667 1.1665H14.8333C15.2754 1.1665 15.6993 1.3421 16.0118 1.65466C16.3244 1.96722 16.5 2.39114 16.5 2.83317M1.5 2.83317V11.1665C1.5 11.6085 1.67559 12.0325 1.98816 12.345C2.30072 12.6576 2.72464 12.8332 3.16667 12.8332H14.8333C15.2754 12.8332 15.6993 12.6576 16.0118 12.345C16.3244 12.0325 16.5 11.6085 16.5 11.1665V2.83317M1.5 2.83317L9 7.83317L16.5 2.83317" stroke="#0653C9" stroke-width="2" stroke-linecap="round" stroke-linejoin="round"/>
</svg>
