<svg width="57" height="56" viewBox="0 0 57 56" fill="none" xmlns="http://www.w3.org/2000/svg">
<path fill-rule="evenodd" clip-rule="evenodd" d="M31.0767 32.6276C30.3121 31.9751 29.3399 31.6167 28.3348 31.6167C27.3297 31.6167 26.3575 31.9751 25.593 32.6276C24.9174 33.2054 24.0758 33.554 23.1895 33.623C22.1882 33.7027 21.248 34.1366 20.5377 34.8469C19.8274 35.5572 19.3935 36.4973 19.3139 37.4987C19.2447 38.3855 18.8939 39.2278 18.3184 39.9021C17.6666 40.6665 17.3086 41.6382 17.3086 42.6428C17.3086 43.6473 17.6666 44.619 18.3184 45.3834C18.8963 46.059 19.2448 46.9005 19.3139 47.7868C19.393 48.789 19.8271 49.7301 20.5379 50.4409C21.2488 51.1518 22.1898 51.5858 23.192 51.665C24.0763 51.7341 24.9186 52.0824 25.5954 52.6579C26.3597 53.3091 27.3308 53.6667 28.3348 53.6667C29.3388 53.6667 30.31 53.3091 31.0742 52.6579C31.7498 52.0801 32.5913 51.7315 33.4777 51.6625C34.4794 51.5834 35.4202 51.1497 36.131 50.4394C36.8418 49.729 37.276 48.7885 37.3558 47.7868C37.425 46.9025 37.7732 46.0577 38.3488 45.3834C39.0006 44.619 39.3586 43.6473 39.3586 42.6428C39.3586 41.6382 39.0006 40.6665 38.3488 39.9021C37.7709 39.2266 37.4224 38.385 37.3533 37.4987C37.2737 36.4973 36.8397 35.5572 36.1295 34.8469C35.4192 34.1366 34.479 33.7027 33.4777 33.623C32.5913 33.554 31.7523 33.2054 31.0767 32.6276ZM33.3023 41.5275C33.4802 41.3614 33.6237 41.1619 33.7245 40.9404C33.8253 40.7188 33.8815 40.4796 33.8899 40.2364C33.8983 39.9931 33.8587 39.7506 33.7733 39.5227C33.6879 39.2947 33.5585 39.0858 33.3924 38.9079C33.2264 38.73 33.0269 38.5865 32.8053 38.4857C32.5838 38.3849 32.3446 38.3287 32.1013 38.3203C31.8581 38.3119 31.6156 38.3515 31.3876 38.4369C31.1597 38.5222 30.9508 38.6517 30.7729 38.8177L26.7465 42.5798L25.8919 41.7819C25.5325 41.4465 25.0547 41.2675 24.5634 41.2845C24.0721 41.3014 23.6077 41.5127 23.2723 41.8721C22.9368 42.2314 22.7579 42.7093 22.7748 43.2005C22.7917 43.6918 23.0031 44.1562 23.3624 44.4917L25.4793 46.4678C25.8225 46.7883 26.2745 46.9666 26.7441 46.9666C27.2136 46.9666 27.6657 46.7883 28.0088 46.4678L33.3023 41.5275Z" fill="#0A56CB"/>
<path d="M2.60938 28.7075V18.6013C2.60938 11.4562 2.60937 7.88106 4.8706 5.66274C7.12926 3.44189 10.7693 3.44189 18.0444 3.44189H38.6244C45.8994 3.44189 49.5395 3.44189 51.7981 5.66274C54.0594 7.88106 54.0594 11.4562 54.0594 18.6013V28.7075C54.0594 35.8526 54.0594 39.4277 51.7981 41.646C49.6501 43.7583 46.2518 43.8618 39.6637 43.8669C39.8497 43.1894 39.8649 42.4777 39.7081 41.7932C39.5512 41.1086 39.2269 40.4719 38.7633 39.9381C38.1615 39.2471 37.7985 38.3863 37.7266 37.4797C37.6436 36.4555 37.1917 35.4939 36.452 34.7674C35.7123 34.0409 34.7331 33.597 33.6903 33.5156C32.7673 33.4449 31.8908 33.0884 31.1873 32.4974C30.3912 31.8307 29.3793 31.4645 28.3331 31.4645C27.2869 31.4645 26.275 31.8307 25.4789 32.4974C24.7753 33.0884 23.8989 33.4449 22.9759 33.5156C21.933 33.597 20.9539 34.0409 20.2142 34.7674C19.4745 35.4939 19.0226 36.4555 18.9396 37.4797C18.8676 38.3868 18.5023 39.2483 17.9029 39.9381C17.4393 40.4719 17.115 41.1086 16.9581 41.7932C16.8012 42.4777 16.8165 43.1894 17.0025 43.8669C10.4169 43.8618 7.02121 43.7583 4.8706 41.646C2.60937 39.4277 2.60938 35.8526 2.60938 28.7075Z" fill="#0A56CB" fill-opacity="0.4"/>
<path d="M18.7459 13.8541C18.7459 13.3668 18.9479 12.8994 19.3074 12.5548C19.667 12.2102 20.1547 12.0166 20.6632 12.0166H36.0024C36.5109 12.0166 36.9986 12.2102 37.3582 12.5548C37.7178 12.8994 37.9198 13.3668 37.9198 13.8541C37.9198 14.3414 37.7178 14.8088 37.3582 15.1534C36.9986 15.498 36.5109 15.6916 36.0024 15.6916H20.6632C20.1547 15.6916 19.667 15.498 19.3074 15.1534C18.9479 14.8088 18.7459 14.3414 18.7459 13.8541ZM15.5502 20.5916C15.0417 20.5916 14.554 20.7852 14.1944 21.1298C13.8348 21.4744 13.6328 21.9418 13.6328 22.4291C13.6328 22.9164 13.8348 23.3838 14.1944 23.7284C14.554 24.073 15.0417 24.2666 15.5502 24.2666H41.1154C41.6239 24.2666 42.1116 24.073 42.4712 23.7284C42.8308 23.3838 43.0328 22.9164 43.0328 22.4291C43.0328 21.9418 42.8308 21.4744 42.4712 21.1298C42.1116 20.7852 41.6239 20.5916 41.1154 20.5916H15.5502Z" fill="#0A56CB"/>
</svg>
