<svg width="18" height="18" viewBox="0 0 18 18" fill="none" xmlns="http://www.w3.org/2000/svg">
<path d="M16.4998 1L11.0831 16C11.0466 16.0798 10.9879 16.1474 10.914 16.1948C10.8402 16.2422 10.7542 16.2674 10.6665 16.2674C10.5787 16.2674 10.4928 16.2422 10.4189 16.1948C10.3451 16.1474 10.2864 16.0798 10.2498 16L7.33315 10.1667L1.49981 7.25C1.42003 7.21344 1.35242 7.15474 1.30502 7.08088C1.25762 7.00701 1.23242 6.9211 1.23242 6.83333C1.23242 6.74557 1.25762 6.65965 1.30502 6.58579C1.35242 6.51193 1.42003 6.45323 1.49981 6.41667L16.4998 1Z" stroke="#0653C9" stroke-width="2" stroke-linecap="round" stroke-linejoin="round"/>
</svg>
