<svg width="56" height="56" viewBox="0 0 56 56" fill="none" xmlns="http://www.w3.org/2000/svg">
<path fill-rule="evenodd" clip-rule="evenodd" d="M49.6096 20.7572C51.831 18.5382 50.2583 14.7418 47.1176 14.7418L40.575 14.7442C39.7806 14.7434 39.0096 15.0128 38.3886 15.5083C37.7677 16.0037 37.3337 16.6956 37.1581 17.4704C36.9825 18.2451 37.0756 19.0565 37.4222 19.7713C37.7688 20.486 38.3483 21.0617 39.0653 21.4035L33.9763 26.4948L28.3647 20.8832C27.6646 20.1836 26.7154 19.7906 25.7256 19.7906C24.7359 19.7906 23.7867 20.1836 23.0867 20.8832L15.0016 28.9658C14.6765 29.2908 14.4186 29.6766 14.2426 30.1012C14.0666 30.5259 13.976 30.981 13.9759 31.4407C13.9757 31.9003 14.0662 32.3555 14.242 32.7802C14.4178 33.205 14.6755 33.5909 15.0005 33.916C15.3254 34.2411 15.7112 34.499 16.1359 34.675C16.5605 34.851 17.0157 34.9417 17.4753 34.9418C17.935 34.9419 18.3902 34.8515 18.8149 34.6757C19.2396 34.4999 19.6255 34.2421 19.9507 33.9172L25.7256 28.1422L31.335 33.7515C31.6817 34.0983 32.0933 34.3733 32.5463 34.561C32.9993 34.7487 33.4848 34.8453 33.9751 34.8453C34.4655 34.8453 34.951 34.7487 35.404 34.561C35.857 34.3733 36.2686 34.0983 36.6153 33.7515L49.6096 20.7572Z" fill="#0A56CB"/>
<path d="M9.33398 8.1665C10.204 8.16655 11.0429 8.49065 11.687 9.07561C12.331 9.66058 12.7341 10.4645 12.8177 11.3305L12.834 11.6665V40.8332H46.6673C47.5662 40.8336 48.4304 41.1798 49.0809 41.8001C49.7314 42.4204 50.1183 43.2672 50.1615 44.165C50.2047 45.0628 49.9009 45.9428 49.3129 46.6226C48.7249 47.3025 47.898 47.7301 47.0033 47.8168L46.6673 47.8332H9.33398C8.46392 47.8331 7.62507 47.509 6.98101 46.9241C6.33694 46.3391 5.93384 45.5352 5.85032 44.6692L5.83398 44.3332V11.6665C5.83398 10.7382 6.20273 9.84801 6.85911 9.19163C7.51549 8.53525 8.40573 8.1665 9.33398 8.1665Z" fill="#0A56CB" fill-opacity="0.4"/>
</svg>
