<svg width="125" height="32" viewBox="0 0 125 32" fill="none" xmlns="http://www.w3.org/2000/svg">
<path d="M0.000244141 7.99999C0.000244141 3.58172 3.58197 0 8.00024 0H24.0002C28.4185 0 32.0002 3.58172 32.0002 8V24C32.0002 28.4183 28.4185 32 24.0002 32H8.00024C3.58197 32 0.000244141 28.4183 0.000244141 24V7.99999Z" fill="#4489F7"/>
<path d="M12.0204 13.4864C11.9254 13.5511 11.8328 13.6181 11.7427 13.6873C11.6745 13.7233 11.6084 13.7649 11.5446 13.8123C10.2197 14.7969 9.08269 16.0443 8.18215 17.2368L6.84884 15.8925C5.389 14.4206 5.85895 12.9285 7.89872 12.5858L11.0884 12.0514C11.6183 11.9607 12.2582 11.4869 12.4982 10.9929L14.258 7.44418C15.2179 5.51861 16.7777 5.51861 17.7276 7.44418L19.4874 10.9929C19.7274 11.4869 20.3673 11.9607 20.9073 12.0514L24.0969 12.5858C26.1367 12.9285 26.6166 14.4206 25.1468 15.8925L22.6671 18.3927C22.2471 18.8161 22.0172 19.6327 22.1471 20.2175L22.8571 23.3125C23.417 25.7623 22.1271 26.71 19.9774 25.4296L17.3762 23.8771C17.561 23.7648 17.7156 23.6603 17.8401 23.5667C18.0697 23.4503 18.2945 23.3177 18.5133 23.1686C21.2166 21.3257 21.9546 17.6642 20.1616 14.9906C18.3686 12.3169 14.7237 11.6434 12.0204 13.4864Z" fill="white"/>
<path fill-rule="evenodd" clip-rule="evenodd" d="M12.3383 15.3939C12.401 15.3457 12.4654 15.2991 12.5315 15.254C14.4128 13.9715 16.9553 14.4491 18.2104 16.3206C19.4654 18.1922 18.9578 20.7491 17.0766 22.0316C16.9244 22.1353 16.7678 22.2276 16.608 22.3085C15.9597 22.7959 14.1372 23.7102 11.125 24.0846L13.6651 21.6843L6.65658 24.3035L11.923 18.3636L8.41193 20.2414C8.85097 19.2671 10.2233 16.951 12.2005 15.4808C12.2448 15.4478 12.2908 15.4189 12.3383 15.3939Z" fill="white"/>
<path d="M44.4026 28.0619C43.3031 28.0619 42.2373 27.9493 41.2051 27.7241C40.1954 27.4989 39.3315 27.1949 38.6135 26.8121L39.0511 22.7588C39.814 23.2317 40.6554 23.6145 41.5754 23.9072C42.4953 24.2 43.3592 24.3463 44.167 24.3463C44.9298 24.3463 45.5693 24.2112 46.0854 23.941C46.6015 23.6483 46.8595 23.2317 46.8595 22.6912C46.8595 22.2634 46.68 21.9369 46.321 21.7117C45.962 21.464 45.2776 21.16 44.2679 20.7997L43.3592 20.4619C42.3943 20.1016 41.609 19.7638 41.0032 19.4486C40.3974 19.1108 39.8476 18.6041 39.354 17.9286C38.8603 17.253 38.6135 16.3635 38.6135 15.2601C38.6135 13.5037 39.2642 12.1413 40.5656 11.173C41.8895 10.1822 43.606 9.68679 45.7152 9.68679C47.3756 9.68679 49.1258 10.0133 50.9657 10.6663L50.3262 14.6859C49.6755 14.3031 48.9351 13.9991 48.1048 13.7739C47.2971 13.5262 46.5342 13.4023 45.8162 13.4023C45.0757 13.4023 44.4811 13.5262 44.0323 13.7739C43.606 14.0216 43.3928 14.3819 43.3928 14.8548C43.3928 15.3052 43.5723 15.6429 43.9314 15.8681C44.2904 16.0933 44.8962 16.3523 45.7488 16.645C46.422 16.8927 46.8146 17.0391 46.9268 17.0841C47.8692 17.4669 48.6546 17.8385 49.2828 18.1988C49.9111 18.5591 50.4608 19.0995 50.932 19.8201C51.4032 20.5182 51.6388 21.4189 51.6388 22.5223C51.6388 24.3689 50.9769 25.7537 49.6531 26.677C48.3292 27.6003 46.5791 28.0619 44.4026 28.0619Z" fill="#022F5E"/>
<path d="M55.1644 2.89746H59.9101V12.693C60.6057 11.6572 61.4022 10.9028 62.2997 10.4299C63.1973 9.93449 64.2294 9.68679 65.3962 9.68679C67.2586 9.68679 68.717 10.2498 69.7716 11.3757C70.8262 12.4791 71.3535 14.0216 71.3535 16.0032V27.5552H66.6079V16.7463C66.6079 15.8456 66.3835 15.1475 65.9347 14.6521C65.4859 14.1342 64.8801 13.8752 64.1172 13.8752C63.287 13.8752 62.4905 14.168 61.7276 14.7535C60.9871 15.3164 60.3813 16.0708 59.9101 17.0166V27.5552H55.1644V2.89746Z" fill="#022F5E"/>
<path d="M80.7549 28.0619C78.9599 28.0619 77.535 27.2963 76.4804 25.765C75.4258 24.2337 74.8986 22.1508 74.8986 19.5161C74.8986 16.3185 75.7063 13.8865 77.3219 12.2201C78.9374 10.5312 81.2598 9.68679 84.2889 9.68679C85.9942 9.68679 87.9912 9.95701 90.2799 10.4975V27.5552H85.7698L85.8708 24.7854H85.7362C85.1528 25.8438 84.4347 26.6545 83.5821 27.2174C82.7519 27.7804 81.8095 28.0619 80.7549 28.0619ZM81.7646 23.9072C82.4602 23.9072 83.1446 23.5357 83.8177 22.7926C84.4908 22.0494 85.1191 21.0586 85.7025 19.8201V14.1455C84.9845 13.9428 84.2665 13.8415 83.5484 13.8415C82.2022 13.8415 81.1812 14.3031 80.4856 15.2263C79.8125 16.1496 79.4759 17.512 79.4759 19.3134C79.4759 20.7321 79.6779 21.858 80.0818 22.6912C80.4856 23.5019 81.0466 23.9072 81.7646 23.9072Z" fill="#022F5E"/>
<path d="M94.9046 10.1597H99.6502V12.997H99.9195C100.57 11.8486 101.21 11.0041 101.838 10.4637C102.489 9.92323 103.296 9.65301 104.261 9.65301C104.665 9.65301 105.002 9.69805 105.271 9.78812L104.766 14.9223C104.183 14.7647 103.712 14.6859 103.353 14.6859C102.836 14.6859 102.376 14.7872 101.973 14.9899C101.591 15.1926 101.243 15.4628 100.929 15.8006C100.638 16.1383 100.211 16.6563 99.6502 17.3543V27.5552H94.9046V10.1597Z" fill="#022F5E"/>
<path d="M108.247 2.89746H112.992V12.693C113.688 11.6572 114.485 10.9028 115.382 10.4299C116.28 9.93449 117.312 9.68679 118.479 9.68679C120.341 9.68679 121.799 10.2498 122.854 11.3757C123.909 12.4791 124.436 14.0216 124.436 16.0032V27.5552H119.69V16.7463C119.69 15.8456 119.466 15.1475 119.017 14.6521C118.568 14.1342 117.962 13.8752 117.2 13.8752C116.369 13.8752 115.573 14.168 114.81 14.7535C114.069 15.3164 113.464 16.0708 112.992 17.0166V27.5552H108.247V2.89746Z" fill="#022F5E"/>
</svg>
