<svg width="17" height="16" viewBox="0 0 17 16" fill="none" xmlns="http://www.w3.org/2000/svg">
<path d="M14.5 0H2.5C1.39543 0 0.5 0.895431 0.5 2V14C0.5 15.1046 1.39543 16 2.5 16H14.5C15.6046 16 16.5 15.1046 16.5 14V2C16.5 0.895431 15.6046 0 14.5 0Z" fill="#C6C6C6"/>
<path d="M9.30727 4.03841L10.1284 5.68058C10.2403 5.90917 10.5389 6.12844 10.7908 6.17043L12.279 6.41768C13.2307 6.5763 13.4547 7.26676 12.7689 7.94788L11.6119 9.10486C11.416 9.3008 11.3087 9.67868 11.3693 9.94927L11.7005 11.3815C11.9618 12.5151 11.36 12.9537 10.3569 12.3612L8.96204 11.5354C8.71012 11.3862 8.29491 11.3862 8.03833 11.5354L6.64342 12.3612C5.64506 12.9537 5.03858 12.5105 5.29983 11.3815L5.63107 9.94927C5.69171 9.67868 5.58441 9.3008 5.38847 9.10486L4.2315 7.94788C3.55037 7.26676 3.76964 6.5763 4.72135 6.41768L6.20956 6.17043C6.45681 6.12844 6.75539 5.90917 6.86735 5.68058L7.68843 4.03841C8.1363 3.14735 8.86407 3.14735 9.30727 4.03841Z" fill="white"/>
</svg>
