<svg width="18" height="18" viewBox="0 0 18 18" fill="none" xmlns="http://www.w3.org/2000/svg">
<path d="M7.33315 10.6667L16.4998 1.5M7.33315 10.6667L10.2498 16.5C10.2864 16.5798 10.3451 16.6474 10.4189 16.6948C10.4928 16.7422 10.5787 16.7674 10.6665 16.7674C10.7542 16.7674 10.8402 16.7422 10.914 16.6948C10.9879 16.6474 11.0466 16.5798 11.0831 16.5L16.4998 1.5M7.33315 10.6667L1.49981 7.75C1.42003 7.71344 1.35242 7.65474 1.30502 7.58088C1.25762 7.50701 1.23242 7.4211 1.23242 7.33333C1.23242 7.24557 1.25762 7.15965 1.30502 7.08579C1.35242 7.01193 1.42003 6.95323 1.49981 6.91667L16.4998 1.5" stroke="white" stroke-width="2" stroke-linecap="round" stroke-linejoin="round"/>
</svg>
