<svg width="48" height="48" viewBox="0 0 48 48" fill="none" xmlns="http://www.w3.org/2000/svg">
<path d="M21.68 32.52C27.72 33.66 32 36.58 32 40V44H0V40C0 36.58 4.28 33.66 10.32 32.52L16 42L21.68 32.52ZM8 16H24V20C24 22.1218 23.1571 24.1566 21.6569 25.6569C20.1566 27.1572 18.1217 28 16 28C13.8783 28 11.8434 27.1572 10.3431 25.6569C8.84285 24.1566 8 22.1218 8 20V16ZM8 14L8.82 5.80003C8.86975 5.30498 9.10223 4.84625 9.47205 4.51341C9.84187 4.18058 10.3225 3.99753 10.82 4.00003H21.2C22.22 4.00003 23.08 4.78003 23.18 5.80003L24 14H8ZM16 6.00003H14V8.00003H12V10H14V12H16V10H18V8.00003H16V6.00003Z" fill="white"/>
<path d="M35.26 35.39C39.79 36.245 43 38.435 43 41V44H19V41C19 38.435 22.21 36.245 26.74 35.39L31 42.5L35.26 35.39ZM25 23H37V26C37 27.5913 36.3679 29.1174 35.2426 30.2427C34.1174 31.3679 32.5913 32 31 32C29.4087 32 27.8826 31.3679 26.7574 30.2427C25.6321 29.1174 25 27.5913 25 26V23ZM25 21.5L25.615 15.35C25.6523 14.9787 25.8267 14.6347 26.104 14.3851C26.3814 14.1354 26.7418 13.9981 27.115 14H34.9C35.665 14 36.31 14.585 36.385 15.35L37 21.5H25ZM31 15.5H29.5V17H28V18.5H29.5V20H31V18.5H32.5V17H31V15.5Z" fill="white" fill-opacity="0.5"/>
</svg>
