<svg width="48" height="48" viewBox="0 0 48 48" fill="none" xmlns="http://www.w3.org/2000/svg">
<g clip-path="url(#clip0_1464_7150)">
<path d="M26.06 3.73996L4.08 0.399961C3.06 0.239961 2.02 0.519961 1.24 1.17996C0.46 1.85996 0 2.83996 0 3.85996V46C0 47.1 0.9 48 2 48H8.5V37.5C8.5 35.56 10.06 34 12 34H17C18.94 34 20.5 35.56 20.5 37.5V48H29V7.19996C29 5.47996 27.76 4.01996 26.06 3.73996ZM11 29.5H8C7.172 29.5 6.5 28.828 6.5 28C6.5 27.172 7.172 26.5 8 26.5H11C11.828 26.5 12.5 27.172 12.5 28C12.5 28.828 11.828 29.5 11 29.5ZM11 23.5H8C7.172 23.5 6.5 22.828 6.5 22C6.5 21.172 7.172 20.5 8 20.5H11C11.828 20.5 12.5 21.172 12.5 22C12.5 22.828 11.828 23.5 11 23.5ZM11 17.5H8C7.172 17.5 6.5 16.828 6.5 16C6.5 15.172 7.172 14.5 8 14.5H11C11.828 14.5 12.5 15.172 12.5 16C12.5 16.828 11.828 17.5 11 17.5ZM11 11.5H8C7.172 11.5 6.5 10.828 6.5 9.99996C6.5 9.17196 7.172 8.49996 8 8.49996H11C11.828 8.49996 12.5 9.17196 12.5 9.99996C12.5 10.828 11.828 11.5 11 11.5ZM21 29.5H18C17.172 29.5 16.5 28.828 16.5 28C16.5 27.172 17.172 26.5 18 26.5H21C21.828 26.5 22.5 27.172 22.5 28C22.5 28.828 21.828 29.5 21 29.5ZM21 23.5H18C17.172 23.5 16.5 22.828 16.5 22C16.5 21.172 17.172 20.5 18 20.5H21C21.828 20.5 22.5 21.172 22.5 22C22.5 22.828 21.828 23.5 21 23.5ZM21 17.5H18C17.172 17.5 16.5 16.828 16.5 16C16.5 15.172 17.172 14.5 18 14.5H21C21.828 14.5 22.5 15.172 22.5 16C22.5 16.828 21.828 17.5 21 17.5ZM21 11.5H18C17.172 11.5 16.5 10.828 16.5 9.99996C16.5 9.17196 17.172 8.49996 18 8.49996H21C21.828 8.49996 22.5 9.17196 22.5 9.99996C22.5 10.828 21.828 11.5 21 11.5Z" fill="white"/>
<path d="M45.24 21.684L31 18.702V48H44.5C46.43 48 48 46.43 48 44.5V25.104C48 23.452 46.874 22.046 45.24 21.684ZM40.5 42H37.5C36.672 42 36 41.328 36 40.5C36 39.672 36.672 39 37.5 39H40.5C41.328 39 42 39.672 42 40.5C42 41.328 41.328 42 40.5 42ZM40.5 36H37.5C36.672 36 36 35.328 36 34.5C36 33.672 36.672 33 37.5 33H40.5C41.328 33 42 33.672 42 34.5C42 35.328 41.328 36 40.5 36ZM40.5 30H37.5C36.672 30 36 29.328 36 28.5C36 27.672 36.672 27 37.5 27H40.5C41.328 27 42 27.672 42 28.5C42 29.328 41.328 30 40.5 30Z" fill="white" fill-opacity="0.5"/>
</g>
<defs>
<clipPath id="clip0_1464_7150">
<rect width="48" height="48" fill="white"/>
</clipPath>
</defs>
</svg>
