<svg width="42" height="48" viewBox="0 0 42 48" fill="none" xmlns="http://www.w3.org/2000/svg">
<path d="M25.2 34.7666C25.2 38.1084 23.8725 41.3132 21.5096 43.6762C19.1466 46.0391 15.9417 47.3666 12.6 47.3666C9.25828 47.3666 6.05342 46.0391 3.69046 43.6762C1.3275 41.3132 0 38.1084 0 34.7666C0 31.4249 1.3275 28.22 3.69046 25.8571C6.05342 23.4941 9.25828 22.1666 12.6 22.1666C15.9417 22.1666 19.1466 23.4941 21.5096 25.8571C23.8725 28.22 25.2 31.4249 25.2 34.7666ZM19.1912 29.5754C19.0612 29.4451 18.9067 29.3416 18.7366 29.271C18.5665 29.2005 18.3842 29.1641 18.2 29.1641C18.0159 29.1641 17.8335 29.2005 17.6634 29.271C17.4933 29.3416 17.3389 29.4451 17.2088 29.5754L9.80001 36.987L7.99121 35.1754C7.72832 34.9125 7.37178 34.7649 7 34.7649C6.62823 34.7649 6.27169 34.9125 6.0088 35.1754C5.74592 35.4383 5.59824 35.7949 5.59824 36.1666C5.59824 36.5384 5.74592 36.895 6.0088 37.1578L8.80881 39.9578C8.93885 40.0882 9.09334 40.1917 9.26343 40.2622C9.43352 40.3328 9.61586 40.3691 9.80001 40.3691C9.98415 40.3691 10.1665 40.3328 10.3366 40.2622C10.5067 40.1917 10.6612 40.0882 10.7912 39.9578L19.1912 31.5578C19.3216 31.4278 19.425 31.2733 19.4956 31.1032C19.5662 30.9331 19.6025 30.7508 19.6025 30.5666C19.6025 30.3825 19.5662 30.2001 19.4956 30.0301C19.425 29.86 19.3216 29.7055 19.1912 29.5754Z" fill="white"/>
<path d="M25.1999 0V12.6C25.1999 13.7139 25.6424 14.7822 26.4301 15.5699C27.2177 16.3575 28.286 16.8 29.3999 16.8H41.9999V40.6C41.9999 41.7139 41.5574 42.7822 40.7698 43.5699C39.9821 44.3575 38.9138 44.8 37.7999 44.8H24.4803C26.5716 42.2676 27.7984 39.1329 27.9817 35.8538C28.1651 32.5746 27.2952 29.3227 25.4993 26.573C23.7033 23.8232 21.0753 21.7197 17.9991 20.5695C14.9228 19.4193 11.5593 19.2827 8.3999 20.1796V4.2C8.3999 3.08609 8.8424 2.01781 9.63005 1.23015C10.4177 0.442499 11.486 0 12.5999 0H25.1999ZM27.9999 0.7V12.6C27.9999 12.9713 28.1474 13.3274 28.41 13.59C28.6725 13.8525 29.0286 14 29.3999 14H41.2999L27.9999 0.7Z" fill="white" fill-opacity="0.5"/>
</svg>
