<svg width="219" height="200" viewBox="0 0 219 200" fill="none" xmlns="http://www.w3.org/2000/svg">
<g clip-path="url(#clip0_2886_1718)">
<rect width="218.644" height="200" rx="47.3684" fill="#0653C9"/>
<path d="M115.195 40.7306V176.819H103.488V41.0659C103.488 37.9781 105.704 35.1976 108.742 34.8763C108.937 34.8623 109.146 34.8623 109.328 34.8623H109.341C112.589 34.8763 115.195 37.4891 115.195 40.7306Z" fill="url(#paint0_linear_2886_1718)" fill-opacity="0.02"/>
<path d="M109.327 35.1914H109.34L109.626 35.1992C112.559 35.359 114.866 37.7665 114.866 40.7305V176.49H103.817V41.0664C103.817 38.1261 105.924 35.5079 108.77 35.2031C108.95 35.1904 109.145 35.1914 109.327 35.1914Z" stroke="url(#paint1_linear_2886_1718)" stroke-opacity="0.11" stroke-width="0.657894"/>
<path d="M105.341 5.86916C97.2713 7.42007 90.7763 13.9451 89.2152 22.035C87.1245 33.0171 93.8287 42.8814 103.488 45.7457C106.54 46.6679 109.913 46.8914 113.37 46.2347C113.997 46.109 114.596 45.9693 115.196 45.7876C122.401 43.6918 128.06 37.558 129.468 30.0969C132.228 15.6357 119.753 3.11663 105.341 5.88312V5.86916ZM109.342 34.8614H109.328C108.77 34.8614 108.227 34.8055 107.641 34.6937C104.199 34.0231 101.383 31.2286 100.742 27.7775C99.5572 21.5878 104.909 16.2225 111.084 17.4102C114.527 18.0529 117.328 20.8753 117.983 24.3264C119.056 29.9292 114.763 34.8614 109.356 34.8614H109.342Z" fill="url(#paint2_linear_2886_1718)" fill-opacity="0.02"/>
<path d="M105.403 6.20605C119.585 3.48372 131.861 15.8004 129.145 30.0352V30.0361C127.76 37.3739 122.192 43.4101 115.104 45.4717L115.101 45.4727C114.661 45.6059 114.22 45.7169 113.765 45.8164L113.309 45.9111C109.905 46.5578 106.585 46.3376 103.583 45.4307H103.581C94.078 42.6126 87.4809 32.9068 89.5381 22.0977C91.0485 14.2702 97.2577 7.93354 105.013 6.27539V6.28125L105.403 6.20605ZM111.146 17.0869C104.842 15.8748 99.3645 21.2504 100.366 27.5391L100.419 27.8389C101.086 31.4245 104.006 34.3206 107.578 35.0166H107.579C108.182 35.1318 108.748 35.1904 109.328 35.1904H109.355C114.879 35.1904 119.28 30.2322 118.354 24.5361L118.307 24.2646C117.627 20.6824 114.722 17.7549 111.145 17.0869H111.146Z" stroke="url(#paint3_linear_2886_1718)" stroke-opacity="0.11" stroke-width="0.657894"/>
<path d="M211.522 52.4653H147.38C137.052 52.4653 128.257 59.2279 125.135 68.5473C123.699 72.8787 119.866 75.9665 115.295 75.9665H103.35C98.7781 75.9665 94.9312 72.8787 93.5096 68.5473C90.3875 59.2279 81.5926 52.4653 71.2646 52.4653H7.12215C3.67947 84.2241 28.503 111.176 59.4731 111.218V99.4817C38.8867 99.4398 21.7988 84.1123 18.9415 64.2299H71.404C75.9756 64.2299 79.8225 67.2898 81.2442 71.6351C84.3663 80.9825 93.1611 87.7171 103.489 87.7171H115.155C125.483 87.7171 134.278 80.9825 137.4 71.6351C138.836 67.3038 142.669 64.2299 147.24 64.2299H199.703C196.846 84.0983 179.758 99.4398 159.171 99.4817V111.218C190.141 111.176 214.965 84.2241 211.522 52.4653Z" fill="url(#paint4_linear_2886_1718)" fill-opacity="0.02"/>
<path d="M71.2644 52.7944C81.4443 52.7944 90.1172 59.4595 93.197 68.6489V68.6499C94.6582 73.1016 98.6209 76.2952 103.349 76.2954H115.295C120.024 76.2954 123.972 73.1017 125.447 68.6519C128.526 59.461 137.199 52.7945 147.38 52.7944H211.225C214.451 84.1171 190.027 110.656 159.5 110.886V99.8062C180.106 99.6027 197.163 84.1981 200.028 64.2769L200.083 63.9009H147.24C142.659 63.901 138.811 66.8848 137.233 71.1177L137.088 71.5317C134.008 80.7494 125.336 87.3882 115.155 87.3882H103.489C93.3078 87.3881 84.6343 80.7489 81.5554 71.5308C80.0933 67.0648 76.1307 63.9009 71.4041 63.9009H18.5623L18.616 64.2769C21.4809 84.212 38.5384 99.6027 59.1443 99.8062V110.886C28.617 110.656 4.193 84.117 7.4187 52.7944H71.2644Z" stroke="url(#paint5_linear_2886_1718)" stroke-opacity="0.11" stroke-width="0.657894"/>
<path d="M88.8678 128.755V135.797C88.8678 139.025 91.4882 141.651 94.7078 141.651H141.567V153.416H94.7078C85.4948 153.416 77.9265 146.29 77.2018 137.236C77.1599 136.775 77.146 136.286 77.146 135.797V128.755C77.146 124.997 78.3168 121.532 80.3099 118.681C83.4878 114.126 88.7563 111.136 94.7218 111.136H141.581V122.901H94.7218C91.5021 122.901 88.8817 125.528 88.8817 128.755H88.8678Z" fill="url(#paint6_linear_2886_1718)" fill-opacity="0.02"/>
<path d="M94.7222 111.465H141.252V122.572H94.7222C91.4302 122.572 88.7332 125.17 88.562 128.426H88.5386V135.797C88.5387 139.206 91.3056 141.98 94.7075 141.98H141.239V153.087H94.7075C85.6683 153.087 78.2412 146.095 77.5298 137.21V137.207L77.5034 136.866C77.4824 136.52 77.4751 136.16 77.4751 135.797V128.755C77.4751 125.297 78.4844 122.092 80.2222 119.401L80.5796 118.87C83.699 114.399 88.8695 111.465 94.7222 111.465Z" stroke="url(#paint7_linear_2886_1718)" stroke-opacity="0.11" stroke-width="0.657894"/>
<path d="M113.004 68.2103V153.999H105.623V68.4217C105.623 66.4752 107.02 64.7224 108.936 64.5198C109.059 64.511 109.191 64.511 109.305 64.511H109.314C111.361 64.5198 113.004 66.1669 113.004 68.2103Z" fill="white"/>
<path d="M106.792 46.2341C101.705 47.2117 97.6105 51.325 96.6264 56.4248C95.3085 63.3479 99.5347 69.5662 105.624 71.3719C107.548 71.9532 109.674 72.0941 111.853 71.6802C112.249 71.6009 112.626 71.5128 113.004 71.3983C117.547 70.0771 121.114 66.2104 122.001 61.507C123.741 52.3908 115.877 44.4989 106.792 46.2429V46.2341ZM109.314 64.5105H109.305C108.954 64.5105 108.611 64.4753 108.242 64.4048C106.072 63.982 104.297 62.2204 103.893 60.0449C103.146 56.143 106.52 52.7607 110.412 53.5094C112.582 53.9146 114.349 55.6938 114.761 57.8693C115.438 61.4013 112.732 64.5105 109.323 64.5105H109.314Z" fill="white"/>
<path d="M173.727 75.6079H133.293C126.782 75.6079 121.238 79.871 119.27 85.7458C118.365 88.4763 115.948 90.4228 113.066 90.4228H105.537C102.655 90.4228 100.23 88.4763 99.3334 85.7458C97.3652 79.871 91.821 75.6079 85.3104 75.6079H44.8756C42.7054 95.6283 58.3538 112.619 77.8771 112.645V105.247C64.8997 105.22 54.1276 95.5579 52.3264 83.0242H85.3982C88.2801 83.0242 90.7052 84.9531 91.6014 87.6924C93.5695 93.5849 99.1137 97.8303 105.624 97.8303H112.979C119.489 97.8303 125.033 93.5849 127.002 87.6924C127.907 84.9619 130.323 83.0242 133.205 83.0242H166.277C164.475 95.5491 153.703 105.22 140.726 105.247V112.645C160.249 112.619 175.898 95.6283 173.727 75.6079Z" fill="white"/>
<path d="M96.4071 123.7V128.139C96.4071 130.174 98.059 131.83 100.089 131.83H129.628V139.246H100.089C94.2809 139.246 89.5099 134.754 89.053 129.046C89.0266 128.756 89.0178 128.448 89.0178 128.139V123.7C89.0178 121.331 89.7559 119.146 91.0123 117.35C93.0156 114.478 96.3369 112.593 100.097 112.593H129.637V120.01H100.097C98.0678 120.01 96.4159 121.665 96.4159 123.7H96.4071Z" fill="white"/>
<g filter="url(#filter0_f_2886_1718)">
<path d="M253.584 209.345C242.423 236.705 166.609 255.88 84.248 252.173C1.88691 248.465 -55.8324 223.279 -44.6717 195.918C-33.511 168.557 42.3033 149.382 124.664 153.09C207.025 156.798 264.745 181.984 253.584 209.345Z" fill="#6EB8E8"/>
</g>
</g>
<rect x="1.31579" y="1.31579" width="216.013" height="197.368" rx="46.0526" stroke="white" stroke-opacity="0.1" stroke-width="2.63158"/>
<defs>
<filter id="filter0_f_2886_1718" x="-203.947" y="-5.26315" width="616.806" height="415.789" filterUnits="userSpaceOnUse" color-interpolation-filters="sRGB">
<feFlood flood-opacity="0" result="BackgroundImageFix"/>
<feBlend mode="normal" in="SourceGraphic" in2="BackgroundImageFix" result="shape"/>
<feGaussianBlur stdDeviation="78.9473" result="effect1_foregroundBlur_2886_1718"/>
</filter>
<linearGradient id="paint0_linear_2886_1718" x1="109.341" y1="34.8623" x2="109.341" y2="176.819" gradientUnits="userSpaceOnUse">
<stop stop-color="#FAFCFF"/>
<stop offset="0.725351" stop-color="#FAFCFF" stop-opacity="0"/>
</linearGradient>
<linearGradient id="paint1_linear_2886_1718" x1="109.341" y1="34.8623" x2="109.341" y2="176.819" gradientUnits="userSpaceOnUse">
<stop stop-color="#EDF3FE"/>
<stop offset="1" stop-color="#EDF3FE" stop-opacity="0"/>
</linearGradient>
<linearGradient id="paint2_linear_2886_1718" x1="109.343" y1="5.49707" x2="109.343" y2="46.6122" gradientUnits="userSpaceOnUse">
<stop stop-color="#FAFCFF"/>
<stop offset="0.725351" stop-color="#FAFCFF" stop-opacity="0"/>
</linearGradient>
<linearGradient id="paint3_linear_2886_1718" x1="109.343" y1="5.49707" x2="109.343" y2="46.6122" gradientUnits="userSpaceOnUse">
<stop stop-color="#EDF3FE"/>
<stop offset="1" stop-color="#EDF3FE" stop-opacity="0"/>
</linearGradient>
<linearGradient id="paint4_linear_2886_1718" x1="109.322" y1="52.4653" x2="109.322" y2="111.218" gradientUnits="userSpaceOnUse">
<stop stop-color="#FAFCFF"/>
<stop offset="0.725351" stop-color="#FAFCFF" stop-opacity="0"/>
</linearGradient>
<linearGradient id="paint5_linear_2886_1718" x1="109.322" y1="52.4653" x2="109.322" y2="111.218" gradientUnits="userSpaceOnUse">
<stop stop-color="#EDF3FE"/>
<stop offset="1" stop-color="#EDF3FE" stop-opacity="0"/>
</linearGradient>
<linearGradient id="paint6_linear_2886_1718" x1="109.364" y1="111.136" x2="109.364" y2="153.416" gradientUnits="userSpaceOnUse">
<stop stop-color="#FAFCFF"/>
<stop offset="0.725351" stop-color="#FAFCFF" stop-opacity="0"/>
</linearGradient>
<linearGradient id="paint7_linear_2886_1718" x1="109.364" y1="111.136" x2="109.364" y2="153.416" gradientUnits="userSpaceOnUse">
<stop stop-color="#EDF3FE"/>
<stop offset="1" stop-color="#EDF3FE" stop-opacity="0"/>
</linearGradient>
<clipPath id="clip0_2886_1718">
<rect width="218.644" height="200" rx="47.3684" fill="white"/>
</clipPath>
</defs>
</svg>
