<svg width="125" height="32" viewBox="0 0 125 32" fill="none" xmlns="http://www.w3.org/2000/svg">
<path d="M0.000244141 7.99999C0.000244141 3.58172 3.58197 0 8.00024 0H24.0002C28.4185 0 32.0002 3.58172 32.0002 8V24C32.0002 28.4183 28.4185 32 24.0002 32H8.00024C3.58197 32 0.000244141 28.4183 0.000244141 24V7.99999Z" fill="#4489F7"/>
<path d="M12.0205 13.4864C11.9255 13.5511 11.8329 13.6181 11.7428 13.6873C11.6746 13.7233 11.6085 13.7649 11.5448 13.8123C10.2199 14.7969 9.08281 16.0443 8.18227 17.2368L6.84896 15.8925C5.38912 14.4206 5.85907 12.9285 7.89884 12.5858L11.0885 12.0514C11.6184 11.9607 12.2584 11.4869 12.4983 10.9929L14.2581 7.44418C15.218 5.51861 16.7779 5.51861 17.7278 7.44418L19.4876 10.9929C19.7275 11.4869 20.3675 11.9607 20.9074 12.0514L24.097 12.5858C26.1368 12.9285 26.6168 14.4206 25.1469 15.8925L22.6672 18.3927C22.2473 18.8161 22.0173 19.6327 22.1473 20.2175L22.8572 23.3125C23.4171 25.7623 22.1273 26.71 19.9775 25.4296L17.3763 23.8771C17.5611 23.7648 17.7157 23.6603 17.8402 23.5667C18.0698 23.4503 18.2947 23.3177 18.5134 23.1686C21.2167 21.3257 21.9547 17.6642 20.1617 14.9906C18.3688 12.3169 14.7238 11.6434 12.0205 13.4864Z" fill="white"/>
<path fill-rule="evenodd" clip-rule="evenodd" d="M12.3384 15.3939C12.4011 15.3457 12.4656 15.2991 12.5317 15.254C14.4129 13.9715 16.9554 14.4491 18.2105 16.3206C19.4656 18.1922 18.9579 20.7491 17.0767 22.0316C16.9245 22.1353 16.7679 22.2276 16.6081 22.3085C15.9598 22.7959 14.1374 23.7102 11.1251 24.0846L13.6652 21.6843L6.6567 24.3035L11.9231 18.3636L8.41205 20.2414C8.85109 19.2671 10.2234 16.951 12.2006 15.4808C12.245 15.4478 12.2909 15.4189 12.3384 15.3939Z" fill="white"/>
<path d="M44.4027 28.0619C43.3032 28.0619 42.2374 27.9493 41.2052 27.7241C40.1955 27.4989 39.3317 27.1949 38.6136 26.8121L39.0512 22.7588C39.8141 23.2317 40.6555 23.6145 41.5755 23.9072C42.4954 24.2 43.3593 24.3463 44.1671 24.3463C44.93 24.3463 45.5695 24.2112 46.0855 23.941C46.6016 23.6483 46.8596 23.2317 46.8596 22.6912C46.8596 22.2634 46.6801 21.9369 46.3211 21.7117C45.9621 21.464 45.2778 21.16 44.268 20.7997L43.3593 20.4619C42.3945 20.1016 41.6091 19.7638 41.0033 19.4486C40.3975 19.1108 39.8477 18.6041 39.3541 17.9286C38.8605 17.253 38.6136 16.3635 38.6136 15.2601C38.6136 13.5037 39.2644 12.1413 40.5658 11.173C41.8896 10.1822 43.6061 9.68679 45.7153 9.68679C47.3757 9.68679 49.1259 10.0133 50.9658 10.6663L50.3263 14.6859C49.6756 14.3031 48.9352 13.9991 48.105 13.7739C47.2972 13.5262 46.5343 13.4023 45.8163 13.4023C45.0758 13.4023 44.4812 13.5262 44.0324 13.7739C43.6061 14.0216 43.393 14.3819 43.393 14.8548C43.393 15.3052 43.5725 15.6429 43.9315 15.8681C44.2905 16.0933 44.8963 16.3523 45.749 16.645C46.4221 16.8927 46.8148 17.0391 46.927 17.0841C47.8694 17.4669 48.6547 17.8385 49.283 18.1988C49.9112 18.5591 50.461 19.0995 50.9322 19.8201C51.4034 20.5182 51.639 21.4189 51.639 22.5223C51.639 24.3689 50.977 25.7537 49.6532 26.677C48.3293 27.6003 46.5792 28.0619 44.4027 28.0619Z" fill="#022F5E"/>
<path d="M55.1645 2.89746H59.9102V12.693C60.6058 11.6572 61.4023 10.9028 62.2999 10.4299C63.1974 9.93449 64.2295 9.68679 65.3963 9.68679C67.2587 9.68679 68.7172 10.2498 69.7717 11.3757C70.8263 12.4791 71.3536 14.0216 71.3536 16.0032V27.5552H66.608V16.7463C66.608 15.8456 66.3836 15.1475 65.9348 14.6521C65.4861 14.1342 64.8802 13.8752 64.1173 13.8752C63.2871 13.8752 62.4906 14.168 61.7277 14.7535C60.9872 15.3164 60.3814 16.0708 59.9102 17.0166V27.5552H55.1645V2.89746Z" fill="#022F5E"/>
<path d="M80.755 28.0619C78.96 28.0619 77.5352 27.2963 76.4806 25.765C75.426 24.2337 74.8987 22.1508 74.8987 19.5161C74.8987 16.3185 75.7064 13.8865 77.322 12.2201C78.9375 10.5312 81.2599 9.68679 84.289 9.68679C85.9943 9.68679 87.9913 9.95701 90.28 10.4975V27.5552H85.7699L85.8709 24.7854H85.7363C85.1529 25.8438 84.4349 26.6545 83.5822 27.2174C82.752 27.7804 81.8096 28.0619 80.755 28.0619ZM81.7647 23.9072C82.4603 23.9072 83.1447 23.5357 83.8178 22.7926C84.491 22.0494 85.1192 21.0586 85.7026 19.8201V14.1455C84.9846 13.9428 84.2666 13.8415 83.5486 13.8415C82.2023 13.8415 81.1813 14.3031 80.4858 15.2263C79.8126 16.1496 79.476 17.512 79.476 19.3134C79.476 20.7321 79.678 21.858 80.0819 22.6912C80.4858 23.5019 81.0467 23.9072 81.7647 23.9072Z" fill="#022F5E"/>
<path d="M94.9047 10.1597H99.6504V12.997H99.9196C100.57 11.8486 101.21 11.0041 101.838 10.4637C102.489 9.92323 103.297 9.65301 104.261 9.65301C104.665 9.65301 105.002 9.69805 105.271 9.78812L104.766 14.9223C104.183 14.7647 103.712 14.6859 103.353 14.6859C102.837 14.6859 102.377 14.7872 101.973 14.9899C101.591 15.1926 101.243 15.4628 100.929 15.8006C100.638 16.1383 100.211 16.6563 99.6504 17.3543V27.5552H94.9047V10.1597Z" fill="#022F5E"/>
<path d="M108.247 2.89746H112.993V12.693C113.688 11.6572 114.485 10.9028 115.382 10.4299C116.28 9.93449 117.312 9.68679 118.479 9.68679C120.341 9.68679 121.799 10.2498 122.854 11.3757C123.909 12.4791 124.436 14.0216 124.436 16.0032V27.5552H119.69V16.7463C119.69 15.8456 119.466 15.1475 119.017 14.6521C118.568 14.1342 117.963 13.8752 117.2 13.8752C116.369 13.8752 115.573 14.168 114.81 14.7535C114.07 15.3164 113.464 16.0708 112.993 17.0166V27.5552H108.247V2.89746Z" fill="#022F5E"/>
</svg>
