<svg width="28" height="28" viewBox="0 0 28 28" fill="none" xmlns="http://www.w3.org/2000/svg">
<path d="M24 0H4C1.79086 0 0 1.79086 0 4V24C0 26.2091 1.79086 28 4 28H24C26.2091 28 28 26.2091 28 24V4C28 1.79086 26.2091 0 24 0Z" fill="#00B67A"/>
<path d="M15.4627 6.81219L16.9525 9.7918C17.1557 10.2066 17.6974 10.6044 18.1545 10.6806L20.8548 11.1292C22.5816 11.417 22.9879 12.6698 21.7436 13.9057L19.6443 16.0049C19.2888 16.3605 19.0941 17.0461 19.2041 17.5371L19.8051 20.1358C20.2792 22.1927 19.1872 22.9884 17.3673 21.9134L14.8363 20.4151C14.3792 20.1442 13.6259 20.1442 13.1603 20.4151L10.6293 21.9134C8.81786 22.9884 7.71743 22.1842 8.19146 20.1358L8.79246 17.5371C8.9025 17.0461 8.70781 16.3605 8.35229 16.0049L6.25303 13.9057C5.01717 12.6698 5.41501 11.417 7.14183 11.1292L9.84209 10.6806C10.2907 10.6044 10.8325 10.2066 11.0356 9.7918L12.5254 6.81219C13.3381 5.19542 14.6586 5.19542 15.4627 6.81219Z" fill="white"/>
</svg>
