<svg width="59" height="59" viewBox="0 0 59 59" fill="none" xmlns="http://www.w3.org/2000/svg">
<rect x="0.923828" y="0.970703" width="57.3695" height="57.3695" rx="10.3484" fill="#FCE300"/>
<path fill-rule="evenodd" clip-rule="evenodd" d="M14.0618 25.9424H45.0783C47.6163 25.9424 49.6928 28.0222 49.6928 30.5643V41.6183C49.6928 44.1604 47.6163 46.2402 45.0783 46.2402H14.0618C11.5238 46.2402 9.44727 44.1604 9.44727 41.6183V30.5643C9.44727 28.0222 11.5238 25.9424 14.0618 25.9424Z" fill="black"/>
<path fill-rule="evenodd" clip-rule="evenodd" d="M20.3833 39.5957C19.855 39.9442 19.3137 40.1185 18.7595 40.1185C18.2699 40.1185 17.8832 39.9668 17.5997 39.6635C17.3162 39.3602 17.1744 38.9181 17.1744 38.3373V33.8068H20.4606V32.1417H17.1744V29.1602H15.1641V32.1417H13.0957V33.8068H15.1641V38.4728C15.1641 39.6344 15.4735 40.5153 16.092 41.1156C16.7106 41.7158 17.5547 42.0159 18.6242 42.0159C19.3846 42.0159 20.1772 41.7706 21.0018 41.2801L20.3833 39.5957ZM30.6744 32.1392H28.664V33.2427C27.7877 32.3263 26.6279 31.8682 25.1846 31.8682C23.8958 31.8682 22.7811 32.3457 21.8404 33.3008C20.8997 34.2559 20.4292 35.4693 20.4292 36.9408C20.4292 38.4251 20.8964 39.6416 21.8307 40.5903C22.7651 41.5389 23.883 42.0133 25.1846 42.0133C26.6279 42.0133 27.7877 41.5552 28.664 40.6386V41.7422H30.6744V32.1392ZM25.514 40.2384C24.612 40.2384 23.8646 39.9384 23.2717 39.3381C22.6789 38.7379 22.3826 37.941 22.3826 36.9472C22.3826 35.9532 22.6789 35.1562 23.2717 34.556C23.8646 33.9558 24.612 33.6558 25.514 33.6558C26.3518 33.6558 27.0863 33.9623 27.7177 34.5754C28.3492 35.1884 28.665 35.979 28.665 36.9472C28.665 37.9151 28.3492 38.7057 27.7177 39.3188C27.0863 39.932 26.3518 40.2384 25.514 40.2384ZM38.2701 37.0442L41.7109 32.1265H39.2947L36.7818 35.7664L34.2688 32.1265H31.8718L35.3126 37.0442L31.8718 41.7489H34.2688L36.7818 38.2833L39.2947 41.7489H41.7109L38.2701 37.0442ZM44.0199 27.999C43.6463 27.999 43.337 28.1217 43.0922 28.3668C42.8473 28.6121 42.7249 28.9089 42.7249 29.2575C42.7249 29.6189 42.8473 29.9157 43.0922 30.1481C43.337 30.3804 43.6463 30.4965 44.0199 30.4965C44.3937 30.4965 44.6998 30.3804 44.9382 30.1481C45.1766 29.9157 45.2958 29.6189 45.2958 29.2575C45.2958 28.9089 45.1734 28.6121 44.9285 28.3668C44.6836 28.1217 44.3808 27.999 44.0199 27.999ZM45.0301 41.7481V32.145H43.0198V41.7481H45.0301Z" fill="#FCE300"/>
<path fill-rule="evenodd" clip-rule="evenodd" d="M26.9902 12.7725C25.4438 12.7725 24.2517 13.3598 23.4141 14.5344C23.1047 13.9793 22.6698 13.547 22.1093 13.2372C21.5487 12.9274 20.9205 12.7725 20.2245 12.7725C18.9101 12.7725 17.8856 13.2243 17.151 14.1278V13.0436H15.1406V22.6466H17.151V17.8837C17.151 16.8254 17.3797 16.0187 17.8372 15.4637C18.2948 14.9087 18.9166 14.6312 19.7026 14.6312C20.3341 14.6312 20.8528 14.8409 21.2587 15.2604C21.6646 15.6798 21.8676 16.2382 21.8676 16.9351V22.6466H23.878V17.8837C23.878 16.8254 24.1099 16.0187 24.5739 15.4637C25.0379 14.9087 25.6692 14.6312 26.4682 14.6312C27.0997 14.6312 27.6184 14.8409 28.0243 15.2604C28.4303 15.6798 28.6333 16.2382 28.6333 16.9351V22.6466H30.6243V16.5286C30.6243 15.4184 30.2731 14.5151 29.5707 13.818C28.8684 13.121 28.0082 12.7725 26.9902 12.7725ZM41.3389 13.0303H39.0965L36.0229 19.9615L33.0267 13.0303H30.7844L34.9211 22.4204L33.3554 25.9441H35.5978L41.3389 13.0303Z" fill="black"/>
</svg>
