<svg width="143" height="28" viewBox="0 0 143 28" fill="none" xmlns="http://www.w3.org/2000/svg">
<path d="M43.7094 18.2222L42.7875 20.6519H39.9863L45.2695 7.39209H46.7588L51.9592 20.6519H49.1581L48.2362 18.2222H43.7094ZM45.9787 12.1173L44.584 15.7314H47.3497L45.9787 12.1173ZM57.1952 11.0428H57.337C58.0934 11.0428 58.8144 11.2015 59.5117 11.519C60.1973 11.8364 60.7528 12.2638 61.1546 12.801L59.8427 14.0708C59.559 13.7412 59.1808 13.4726 58.6962 13.265C58.2116 13.0574 57.7743 12.9475 57.3725 12.9475H57.2306C56.8051 12.9597 56.4624 13.0452 56.2024 13.2162C55.9423 13.3749 55.8123 13.6069 55.8123 13.8999C55.8123 14.1685 55.9305 14.3639 56.1551 14.486C56.3796 14.6081 56.7697 14.7057 57.337 14.7546L57.9634 14.8278C60.2209 14.9866 61.3556 15.9756 61.3556 17.7826C61.3556 18.6373 61.0246 19.3455 60.3509 19.9071C59.6772 20.4688 58.7908 20.7496 57.6798 20.7496H57.5852C56.6869 20.7496 55.836 20.5786 55.0322 20.249C54.2404 19.9193 53.6494 19.4798 53.2712 18.9303L54.5949 17.6483C54.8668 17.978 55.2805 18.2466 55.8596 18.4664C56.4387 18.6861 57.0061 18.796 57.5616 18.796H57.6561C58.578 18.796 59.0272 18.4908 59.0272 17.8681C59.0272 17.514 58.909 17.2698 58.6608 17.1355C58.4126 17.0012 58.0107 16.9035 57.4552 16.8547L56.947 16.7936C54.654 16.586 53.4957 15.6703 53.4957 14.0464C53.4957 13.1063 53.8503 12.3859 54.5595 11.8487C55.2568 11.3236 56.1314 11.055 57.1952 11.0428ZM72.5838 20.6397H71.0237L70.8937 19.2966C70.1491 20.2734 69.1326 20.7496 67.8561 20.7496C66.5678 20.7496 65.5041 20.2856 64.6531 19.3455C63.8021 18.4053 63.3766 17.2576 63.3766 15.9023C63.3766 14.5348 63.8021 13.3871 64.6531 12.4469C65.5041 11.5068 66.5678 11.0306 67.8561 11.0306C69.1444 11.0306 70.1491 11.519 70.8937 12.508L71.0237 11.1649H72.5838V20.6397ZM68.0689 18.4297C68.7071 18.4297 69.2626 18.1977 69.7236 17.7338C70.1845 17.2698 70.4327 16.6593 70.4327 15.9145C70.4327 15.1697 70.1964 14.5592 69.7236 14.083C69.2508 13.6069 68.6953 13.3749 68.0689 13.3749C67.4307 13.3749 66.8751 13.6069 66.4142 14.083C65.9414 14.5592 65.705 15.1697 65.705 15.9145C65.705 16.6593 65.9414 17.2698 66.4024 17.7338C66.8633 18.1977 67.4188 18.4297 68.0689 18.4297ZM82.0984 20.6397L80.5264 18.1245C80.2309 17.6605 79.9709 17.3431 79.7463 17.1721C79.5218 17.0134 79.2026 16.9279 78.789 16.9279H78.1507V20.6397H75.8223V7.37988H78.1507V14.6203H78.718C79.1317 14.6203 79.4508 14.5348 79.6754 14.3761C79.9 14.2174 80.1482 13.8999 80.4437 13.4237L81.8738 11.1649H84.4622L82.3938 14.3761C81.9329 15.1209 81.4956 15.5848 81.0937 15.7558C81.5074 15.8901 81.9683 16.3663 82.4884 17.1721L84.6868 20.6397H82.0984ZM95.2177 20.6397H93.6576L93.5276 19.2966C92.783 20.2734 91.7665 20.7496 90.49 20.7496C89.2017 20.7496 88.138 20.2856 87.287 19.3455C86.436 18.4053 86.0105 17.2576 86.0105 15.9023C86.0105 14.5348 86.436 13.3871 87.287 12.4469C88.138 11.5068 89.2017 11.0306 90.49 11.0306C91.7783 11.0306 92.783 11.519 93.5276 12.508L93.6576 11.1649H95.2177V20.6397ZM90.7146 18.4297C91.3528 18.4297 91.9083 18.1977 92.3693 17.7338C92.8421 17.2698 93.0784 16.6593 93.0784 15.9145C93.0784 15.1697 92.8421 14.5592 92.3693 14.083C91.8965 13.6069 91.341 13.3749 90.7146 13.3749C90.0764 13.3749 89.5208 13.6069 89.0599 14.083C88.5871 14.5592 88.3507 15.1697 88.3507 15.9145C88.3507 16.6593 88.5871 17.2698 89.0481 17.7338C89.509 18.1977 90.0645 18.4297 90.7146 18.4297ZM100.69 7.37988V12.0929C101.293 11.3847 102.097 11.0306 103.113 11.0306C104.401 11.0306 105.465 11.5068 106.304 12.4469C107.143 13.3871 107.569 14.5348 107.569 15.9023C107.569 17.2698 107.143 18.4175 106.304 19.3455C105.465 20.2856 104.401 20.7496 103.113 20.7496C101.825 20.7496 100.808 20.2612 100.052 19.2966L99.9218 20.6397H98.3617V7.37988H100.69ZM104.531 14.083C104.059 13.6069 103.503 13.3749 102.877 13.3749C102.238 13.3749 101.683 13.6069 101.222 14.083C100.749 14.5592 100.513 15.1697 100.513 15.9145C100.513 16.6593 100.749 17.2698 101.222 17.7338C101.695 18.1977 102.25 18.4297 102.877 18.4297C103.527 18.4297 104.082 18.1977 104.543 17.7338C105.004 17.2698 105.24 16.6593 105.24 15.9145C105.229 15.1575 104.992 14.5592 104.531 14.083ZM118.797 20.6397H117.237L117.107 19.2966C116.362 20.2734 115.346 20.7496 114.069 20.7496C112.793 20.7496 111.717 20.2856 110.866 19.3455C110.015 18.4053 109.59 17.2576 109.59 15.9023C109.59 14.5348 110.015 13.3871 110.866 12.4469C111.717 11.5068 112.781 11.0306 114.069 11.0306C115.358 11.0306 116.362 11.519 117.107 12.508L117.237 11.1649H118.797V20.6397ZM114.282 18.4297C114.92 18.4297 115.476 18.1977 115.937 17.7338C116.41 17.2698 116.646 16.6593 116.646 15.9145C116.646 15.1697 116.41 14.5592 115.937 14.083C115.464 13.6069 114.909 13.3749 114.282 13.3749C113.644 13.3749 113.088 13.6069 112.627 14.083C112.155 14.5592 111.918 15.1697 111.918 15.9145C111.918 16.6593 112.155 17.2698 112.616 17.7338C113.088 18.1977 113.644 18.4297 114.282 18.4297ZM126.811 11.0428C128.111 11.0428 129.092 11.4579 129.777 12.2882C130.463 13.1185 130.806 14.2418 130.806 15.6459V20.6397H128.477V15.7924C128.477 14.1807 127.803 13.3627 126.444 13.3627C125.747 13.3627 125.215 13.5824 124.825 14.022C124.447 14.4615 124.258 15.1209 124.258 16V20.6397H121.929V11.1649H123.489L123.655 12.6423C124.293 11.58 125.345 11.0428 126.811 11.0428ZM140.225 20.6397L138.654 18.1245C138.358 17.6605 138.098 17.3431 137.873 17.1721C137.649 17.0134 137.33 16.9279 136.916 16.9279H136.278V20.6397H133.949V7.37988H136.278V14.6203H136.845C137.259 14.6203 137.578 14.5348 137.803 14.3761C138.027 14.2174 138.275 13.8999 138.571 13.4237L140.001 11.1649H142.578L140.521 14.3761C140.06 15.1209 139.623 15.5848 139.221 15.7558C139.635 15.8901 140.095 16.3663 140.616 17.1721L142.814 20.6397H140.225Z" fill="#0D0D12"/>
<path d="M4.58297 21.9355L2.89943 23.6176C2.01433 24.5019 1.12924 25.3862 0.244141 26.2705V21.9417L0.25033 21.9355H4.58297Z" fill="#E41D32"/>
<path d="M19.6075 21.9355V27.5629H1.55273L4.12756 24.9904L5.2788 23.8464L7.18516 21.9355H19.6075Z" fill="#E41D32"/>
<path d="M19.5996 9.5166V20.085H9.01562C12.4941 16.6158 16.0716 13.0415 19.5996 9.5166Z" fill="#E41D32"/>
<path d="M27.1712 1.96191V27.5635H21.4336V7.69443C22.4672 6.66172 23.5009 5.629 24.5345 4.59009L27.1712 1.96191Z" fill="#E41D32"/>
<path d="M25.8793 0.65332C18.9471 7.58553 12.4048 14.122 6.42575 20.0957H2.06836L21.2929 0.65332H25.8793Z" fill="#E41D32"/>
<path d="M18.7074 0.65332L0.244141 19.3227V0.65332H18.7074Z" fill="#E41D32"/>
</svg>
