<svg width="128" height="26" viewBox="0 0 128 26" fill="none" xmlns="http://www.w3.org/2000/svg">
<g clip-path="url(#clip0_1_3758)">
<path d="M27.1642 18.9192C26.0002 18.9192 25.0927 18.5843 24.4416 17.9145C23.7904 17.2363 23.4648 16.2528 23.4648 14.964V9.87695H25.345V14.9132C25.345 15.6254 25.5037 16.1722 25.8212 16.5538C26.1468 16.9268 26.6026 17.1133 27.1886 17.1133C27.7746 17.1133 28.2264 16.931 28.5438 16.5665C28.8694 16.2019 29.0321 15.672 29.0321 14.9768V9.87695H30.9123V14.9004C30.9123 16.2231 30.5786 17.2236 29.9112 17.9018C29.2519 18.5801 28.3362 18.9192 27.1642 18.9192Z" fill="#0D0D12"/>
<path d="M32.5664 18.7793V17.2914L37.2669 11.5938H32.7129V9.87695H39.6843V11.3649L34.9838 17.0625H39.6843V18.7793H32.5664Z" fill="#0D0D12"/>
<path d="M44.3917 18.9229C42.9917 18.9229 41.783 18.4481 40.7656 17.4985L41.8766 16.1122C42.715 16.8329 43.5656 17.1933 44.4283 17.1933C44.8109 17.1933 45.112 17.1169 45.3318 16.9643C45.5516 16.8117 45.6614 16.5998 45.6614 16.3285C45.6614 16.0741 45.5475 15.8706 45.3196 15.718C45.0917 15.5569 44.6318 15.3831 43.94 15.1966C43.4516 15.0694 43.0568 14.9465 42.7557 14.8278C42.4545 14.7006 42.1656 14.5353 41.8889 14.3318C41.6203 14.1283 41.4208 13.8739 41.2906 13.5687C41.1685 13.255 41.1075 12.882 41.1075 12.4495C41.1075 11.6441 41.3842 10.9955 41.9377 10.5037C42.4993 10.012 43.2196 9.76611 44.0987 9.76611C45.3114 9.76611 46.3696 10.1434 47.273 10.898L46.2963 12.3732C45.4905 11.7882 44.7498 11.4957 44.0743 11.4957C43.7243 11.4957 43.4516 11.572 43.2563 11.7246C43.0691 11.8688 42.9755 12.0595 42.9755 12.2969C42.9755 12.5852 43.0935 12.8014 43.3295 12.9455C43.5656 13.0897 44.0621 13.2635 44.819 13.467C45.7469 13.7213 46.4306 14.0477 46.8701 14.4462C47.3096 14.8447 47.5294 15.417 47.5294 16.1631C47.5294 17.0279 47.2405 17.7062 46.6626 18.198C46.0928 18.6812 45.3359 18.9229 44.3917 18.9229Z" fill="#0D0D12"/>
<path d="M52.7208 18.9192C51.5569 18.9192 50.6494 18.5843 49.9982 17.9145C49.3471 17.2363 49.0215 16.2528 49.0215 14.964V9.87695H50.9017V14.9132C50.9017 15.6254 51.0604 16.1722 51.3778 16.5538C51.7034 16.9268 52.1592 17.1133 52.7452 17.1133C53.3313 17.1133 53.783 16.931 54.1004 16.5665C54.426 16.2019 54.5888 15.672 54.5888 14.9768V9.87695H56.469V14.9004C56.469 16.2231 56.1353 17.2236 55.4678 17.9018C54.8086 18.5801 53.8929 18.9192 52.7208 18.9192Z" fill="#0D0D12"/>
<path d="M61.1192 18.8429L57.6641 9.87695H59.7396L61.9738 16.1468L64.2081 9.87695H66.2348L62.7796 18.8429H61.1192Z" fill="#0D0D12"/>
<path d="M69.5322 18.7793V11.6829H66.9316V9.87695H74.0129V11.6829H71.4124V18.7793H69.5322Z" fill="#0D0D12"/>
<path d="M73.6387 18.7873L77.3014 9.82129H79.035L82.6977 18.7873H80.7321L79.9507 16.7906H76.3369L75.5555 18.7873H73.6387ZM77.0083 15.061H79.2792L78.1438 12.1741L77.0083 15.061Z" fill="#0D0D12"/>
<path d="M83.4785 18.7794V9.87695H85.5052L87.7517 13.6414L89.9981 9.87695H92.0248V18.7794H90.1568V12.9674L87.7517 16.77H87.7028L85.3221 13.0055V18.7794H83.4785Z" fill="#0D0D12"/>
<path d="M94.166 18.7794V9.87695H96.0462V18.7794H94.166Z" fill="#0D0D12"/>
<path d="M98.1816 18.7794V9.87695H99.9153L103.92 15.3583V9.87695H105.776V18.7794H104.176L100.037 13.12V18.7794H98.1816Z" fill="#0D0D12"/>
<path d="M115.228 17.6018C114.366 18.492 113.283 18.9371 111.981 18.9371C110.678 18.9371 109.596 18.492 108.733 17.6018C107.878 16.7115 107.451 15.622 107.451 14.3333C107.451 13.0531 107.883 11.9678 108.745 11.0776C109.616 10.1789 110.703 9.72949 112.005 9.72949C113.307 9.72949 114.386 10.1746 115.241 11.0649C116.103 11.9551 116.535 13.0446 116.535 14.3333C116.535 15.6136 116.099 16.703 115.228 17.6018ZM110.149 16.3173C110.638 16.8599 111.256 17.1312 112.005 17.1312C112.754 17.1312 113.368 16.8641 113.849 16.33C114.329 15.7874 114.569 15.1218 114.569 14.3333C114.569 13.5533 114.325 12.892 113.836 12.3493C113.348 11.8067 112.73 11.5354 111.981 11.5354C111.232 11.5354 110.617 11.8067 110.137 12.3493C109.657 12.8835 109.417 13.5448 109.417 14.3333C109.417 15.1133 109.661 15.7746 110.149 16.3173Z" fill="#0D0D12"/>
<path d="M119.817 18.7794V11.6829H117.217V9.87695H124.298V11.6829H121.697V18.7794H119.817Z" fill="#0D0D12"/>
<path d="M18.5049 16.901C18.5049 21.4772 14.7017 25.6757 9.3448 25.6757C6.58516 25.6757 4.21975 24.5427 2.59643 22.8322C1.80796 22.0103 1.18184 21.0328 0.787602 19.9888C-0.140007 17.6341 -0.047245 14.9017 1.5065 12.4359L7.09534 3.46131L7.74466 2.41724C7.83739 2.26174 8.09251 2.26174 8.18525 2.41724L8.83462 3.46131L9.39114 4.34989L12.7306 9.72574L14.6322 12.7913L15.1655 13.6577C15.2815 13.8354 15.3742 14.0353 15.467 14.2131C15.9076 15.1016 16.1163 16.0346 16.1163 16.9454C16.1163 20.0554 13.7277 22.9211 10.2724 23.3432C10.1564 23.3654 10.0637 23.3654 9.94772 23.3654C9.85498 23.3654 9.76219 23.3876 9.64626 23.3876C9.55352 23.3876 9.46073 23.3876 9.368 23.3876C9.27521 23.3876 9.06648 23.3876 9.04329 23.3876V22.0325V22.0103L12.2204 16.7455H8.64909V19.9888C8.64909 21.2328 7.99977 22.3435 6.84022 22.9433C6.35324 22.7656 5.91264 22.5212 5.4952 22.2546C5.37926 22.1658 5.24012 22.0769 5.12417 21.988C4.03423 21.1439 3.22257 19.9666 2.85153 18.6559C2.71239 18.1672 2.61962 17.6341 2.59643 17.1232C2.57324 15.968 2.85153 14.7684 3.54723 13.6577L7.07214 7.99306L7.93018 6.59352V7.14892C7.93018 8.5928 7.51274 10.0367 6.74749 11.2807L4.82269 14.3685C4.38208 15.1016 4.12699 15.8569 4.08061 16.6122C4.05742 16.9898 4.08061 17.3675 4.12699 17.7229C4.38208 19.2113 5.33287 20.5664 6.72429 21.3216C6.95621 20.9884 7.11854 20.5664 7.14174 20.122V15.3016H13.8901V16.7233L10.8753 21.8104C13.1248 21.1662 14.6322 19.1446 14.6322 16.9676C14.6322 16.59 14.5858 16.2124 14.493 15.8125C14.377 15.3238 14.1683 14.8573 13.8901 14.3908L13.7741 14.1908L11.4319 10.4366L9.368 7.10446L8.50991 5.70498L8.06931 4.9941C8.02292 4.90524 7.90699 4.90524 7.86059 4.9941L2.75877 13.1912C1.83116 14.6796 1.52969 16.279 1.71521 17.8118C1.80797 18.6115 2.06306 19.389 2.41092 20.0998C2.75877 20.7885 3.19938 21.4327 3.75594 21.988C3.82551 22.0769 3.91827 22.1436 3.98785 22.2324C4.45165 22.6545 4.96183 23.0322 5.54159 23.3432C5.58799 23.3654 5.61118 23.3876 5.65753 23.4098C6.33004 23.7652 7.04895 24.0096 7.83739 24.1651C8.32443 24.2539 8.81142 24.2984 9.3448 24.2984H9.368C13.8437 24.2762 17.0208 20.7663 17.0208 16.9454C17.0208 15.7014 16.6729 14.413 15.9308 13.1912L13.5422 9.34813L9.3448 2.57274L8.48676 1.17324L7.90699 0.240234C8.97375 0.240234 9.97092 0.773377 10.5275 1.66195L14.8408 8.5928L17.2294 12.4359C18.1107 13.8798 18.5049 15.4126 18.5049 16.901Z" fill="url(#paint0_linear_1_3758)"/>
</g>
<defs>
<linearGradient id="paint0_linear_1_3758" x1="0.191406" y1="12.9579" x2="18.5049" y2="12.9579" gradientUnits="userSpaceOnUse">
<stop stop-color="#61E0FF"/>
<stop offset="1" stop-color="#0055EB"/>
</linearGradient>
<clipPath id="clip0_1_3758">
<rect width="127.177" height="25.4354" fill="white" transform="translate(0.197266 0.245117)"/>
</clipPath>
</defs>
</svg>
