<svg width="46" height="46" viewBox="0 0 46 46" fill="none" xmlns="http://www.w3.org/2000/svg">
<path fill-rule="evenodd" clip-rule="evenodd" d="M23.5386 29.5677C21.1918 30.882 18.5469 31.5719 15.8571 31.5714C13.2857 31.5714 10.8571 30.9543 8.71429 29.8571V35.8571C8.71429 37.7515 9.46683 39.5684 10.8064 40.9079C12.1459 42.2475 13.9627 43 15.8571 43H25.8571V34.4286C25.8571 32.1553 26.7602 29.9751 28.3677 28.3677C29.9751 26.7602 32.1553 25.8571 34.4286 25.8571H43V15.8571C43 13.9627 42.2475 12.1459 40.9079 10.8064C39.5684 9.46683 37.7515 8.71429 35.8571 8.71429H29.8571C31.0798 11.1101 31.667 13.7797 31.5625 16.4675C31.458 19.1552 30.6654 21.7712 29.2605 24.0649C27.8556 26.3586 25.8854 28.2533 23.5386 29.5677ZM31.1314 41.7457C30.4775 42.3998 29.6296 42.8247 28.7143 42.9571V34.4286C28.7143 32.913 29.3163 31.4596 30.388 30.388C31.4596 29.3163 32.913 28.7143 34.4286 28.7143H42.9571C42.8247 29.6296 42.3998 30.4775 41.7457 31.1314L31.1314 41.7457Z" fill="#23B3FC"/>
<path fill-rule="evenodd" clip-rule="evenodd" d="M28.7143 15.8571C28.7143 19.2671 27.3597 22.5373 24.9485 24.9485C22.5373 27.3597 19.2671 28.7143 15.8571 28.7143C12.4472 28.7143 9.17695 27.3597 6.76577 24.9485C4.35459 22.5373 3 19.2671 3 15.8571C3 12.4472 4.35459 9.17695 6.76577 6.76577C9.17695 4.35459 12.4472 3 15.8571 3C19.2671 3 22.5373 4.35459 24.9485 6.76577C27.3597 9.17695 28.7143 12.4472 28.7143 15.8571ZM16.8673 9.13271C17.1352 9.40061 17.2857 9.76398 17.2857 10.1429V14.4286H21.5714C21.9503 14.4286 22.3137 14.5791 22.5816 14.847C22.8495 15.1149 23 15.4783 23 15.8571C23 16.236 22.8495 16.5994 22.5816 16.8673C22.3137 17.1352 21.9503 17.2857 21.5714 17.2857H17.2857V21.5714C17.2857 21.9503 17.1352 22.3137 16.8673 22.5816C16.5994 22.8495 16.236 23 15.8571 23C15.4783 23 15.1149 22.8495 14.847 22.5816C14.5791 22.3137 14.4286 21.9503 14.4286 21.5714V17.2857H10.1429C9.76398 17.2857 9.40061 17.1352 9.13271 16.8673C8.8648 16.5994 8.71429 16.236 8.71429 15.8571C8.71429 15.4783 8.8648 15.1149 9.13271 14.847C9.40061 14.5791 9.76398 14.4286 10.1429 14.4286H14.4286V10.1429C14.4286 9.76398 14.5791 9.40061 14.847 9.13271C15.1149 8.8648 15.4783 8.71429 15.8571 8.71429C16.236 8.71429 16.5994 8.8648 16.8673 9.13271Z" fill="#23B3FC" fill-opacity="0.4"/>
</svg>
