<svg width="46" height="46" viewBox="0 0 46 46" fill="none" xmlns="http://www.w3.org/2000/svg">
<g clip-path="url(#clip0_1_3004)">
<path d="M10.3017 24.2698V14.1111H6.49214C5.48179 14.1111 4.51283 14.5124 3.7984 15.2269C3.08398 15.9413 2.68262 16.9103 2.68262 17.9206V40.7778C2.68451 41.0136 2.75204 41.2442 2.87763 41.4438C3.00323 41.6435 3.18194 41.8041 3.39373 41.9079C3.59777 42.0007 3.82273 42.0378 4.04576 42.0155C4.26879 41.9932 4.48195 41.9123 4.66357 41.7809L11.2033 36.9682H28.2699C28.7512 36.9825 29.2303 36.8977 29.6775 36.7193C30.1247 36.5408 30.5305 36.2725 30.8698 35.9308C31.209 35.5892 31.4745 35.1815 31.6499 34.733C31.8252 34.2846 31.9066 33.805 31.889 33.3238V31.8889H17.9207C15.9 31.8889 13.9621 31.0861 12.5332 29.6573C11.1044 28.2284 10.3017 26.2905 10.3017 24.2698Z" fill="#23B3FC"/>
<path d="M38.2383 17.2857C36.7701 17.2892 35.3211 16.9523 34.005 16.3014C32.6889 15.6506 31.5417 14.7035 30.6533 13.5346C29.7649 12.3657 29.1596 11.0067 28.8849 9.56443C28.6102 8.12215 28.6736 6.63582 29.0701 5.22217H17.9209C16.9105 5.22217 15.9415 5.62353 15.2271 6.33795C14.5127 7.05238 14.1113 8.02134 14.1113 9.03169V24.2698C14.1113 25.2801 14.5127 26.2491 15.2271 26.9635C15.9415 27.678 16.9105 28.0793 17.9209 28.0793H35.1272L41.197 32.7904C41.3775 32.9238 41.5901 33.007 41.8131 33.0316C42.0362 33.0561 42.2618 33.0211 42.4669 32.9301C42.683 32.8272 42.8656 32.6653 42.9936 32.4631C43.1217 32.2609 43.19 32.0266 43.1907 31.7872V15.8507C41.7046 16.7784 39.9901 17.2751 38.2383 17.2857Z" fill="#23B3FC" fill-opacity="0.4"/>
<path d="M38.2384 14.111C41.7449 14.111 44.5876 11.2684 44.5876 7.7618C44.5876 4.25523 41.7449 1.4126 38.2384 1.4126C34.7318 1.4126 31.8892 4.25523 31.8892 7.7618C31.8892 11.2684 34.7318 14.111 38.2384 14.111Z" fill="#23B3FC"/>
</g>
<defs>
<clipPath id="clip0_1_3004">
<rect width="45.7143" height="45.7143" fill="white" transform="translate(0.143066 0.142822)"/>
</clipPath>
</defs>
</svg>
