<svg width="46" height="46" viewBox="0 0 46 46" fill="none" xmlns="http://www.w3.org/2000/svg">
<path fill-rule="evenodd" clip-rule="evenodd" d="M25.2393 26.7776C24.6151 26.245 23.8215 25.9524 23.001 25.9524C22.1805 25.9524 21.3869 26.245 20.7628 26.7776C20.2113 27.2493 19.5243 27.5338 18.8008 27.5902C17.9833 27.6552 17.2159 28.0095 16.636 28.5893C16.0562 29.1691 15.702 29.9366 15.637 30.754C15.5805 31.4779 15.2942 32.1655 14.8243 32.716C14.2923 33.34 14 34.1332 14 34.9533C14 35.7733 14.2923 36.5665 14.8243 37.1905C15.2961 37.742 15.5806 38.429 15.637 39.1525C15.7016 39.9706 16.0559 40.7388 16.6362 41.3191C17.2165 41.8994 17.9847 42.2537 18.8028 42.3183C19.5247 42.3748 20.2123 42.6591 20.7648 43.1289C21.3886 43.6605 22.1814 43.9524 23.001 43.9524C23.8206 43.9524 24.6134 43.6605 25.2372 43.1289C25.7887 42.6572 26.4757 42.3727 27.1992 42.3163C28.017 42.2517 28.785 41.8977 29.3652 41.3178C29.9455 40.738 30.3 39.9702 30.3651 39.1525C30.4215 38.4306 30.7058 37.741 31.1757 37.1905C31.7077 36.5665 32 35.7733 32 34.9533C32 34.1332 31.7077 33.34 31.1757 32.716C30.7039 32.1645 30.4194 31.4775 30.363 30.754C30.298 29.9366 29.9438 29.1691 29.364 28.5893C28.7841 28.0095 28.0167 27.6552 27.1992 27.5902C26.4757 27.5338 25.7908 27.2493 25.2393 26.7776ZM27.0561 34.0428C27.2013 33.9073 27.3184 33.7444 27.4007 33.5635C27.483 33.3827 27.5289 33.1874 27.5358 32.9889C27.5426 32.7903 27.5103 32.5923 27.4406 32.4062C27.3709 32.2202 27.2653 32.0496 27.1297 31.9044C26.9941 31.7591 26.8312 31.642 26.6504 31.5597C26.4696 31.4774 26.2743 31.4315 26.0757 31.4247C25.8771 31.4179 25.6792 31.4502 25.4931 31.5199C25.307 31.5896 25.1365 31.6952 24.9912 31.8308L21.7044 34.9018L21.0067 34.2505C20.7134 33.9767 20.3233 33.8306 19.9223 33.8444C19.5212 33.8582 19.1421 34.0308 18.8683 34.3241C18.5945 34.6175 18.4484 35.0076 18.4622 35.4086C18.476 35.8096 18.6486 36.1887 18.9419 36.4626L20.67 38.0757C20.9501 38.3374 21.3191 38.4829 21.7024 38.4829C22.0857 38.4829 22.4547 38.3374 22.7348 38.0757L27.0561 34.0428Z" fill="#23B3FC"/>
<path d="M2 23.5774V15.3274C2 9.49464 2 6.57621 3.8459 4.76533C5.6897 2.95239 8.6612 2.95239 14.6 2.95239H31.4C37.3388 2.95239 40.3103 2.95239 42.1541 4.76533C44 6.57621 44 9.49464 44 15.3274V23.5774C44 29.4101 44 32.3286 42.1541 34.1395C40.4006 35.8637 37.6265 35.9483 32.2484 35.9524C32.4003 35.3994 32.4127 34.8183 32.2846 34.2595C32.1566 33.7007 31.8919 33.181 31.5134 32.7452C31.0221 32.1811 30.7258 31.4785 30.6671 30.7384C30.5994 29.9023 30.2305 29.1173 29.6266 28.5242C29.0228 27.9311 28.2235 27.5688 27.3722 27.5023C26.6187 27.4447 25.9032 27.1536 25.3289 26.6711C24.679 26.1269 23.853 25.828 22.9989 25.828C22.1449 25.828 21.3189 26.1269 20.669 26.6711C20.0947 27.1536 19.3792 27.4447 18.6257 27.5023C17.7744 27.5688 16.9751 27.9311 16.3713 28.5242C15.7674 29.1173 15.3985 29.9023 15.3308 30.7384C15.272 31.4788 14.9738 32.1821 14.4845 32.7452C14.106 33.181 13.8413 33.7007 13.7133 34.2595C13.5852 34.8183 13.5976 35.3994 13.7495 35.9524C8.3735 35.9483 5.6015 35.8637 3.8459 34.1395C2 32.3286 2 29.4101 2 23.5774Z" fill="#23B3FC" fill-opacity="0.4"/>
<path d="M15.1739 11.4524C15.1739 11.0546 15.3388 10.673 15.6324 10.3917C15.9259 10.1104 16.324 9.95239 16.7391 9.95239H29.2609C29.676 9.95239 30.0741 10.1104 30.3676 10.3917C30.6612 10.673 30.8261 11.0546 30.8261 11.4524C30.8261 11.8502 30.6612 12.2317 30.3676 12.5131C30.0741 12.7944 29.676 12.9524 29.2609 12.9524H16.7391C16.324 12.9524 15.9259 12.7944 15.6324 12.5131C15.3388 12.2317 15.1739 11.8502 15.1739 11.4524ZM12.5652 16.9524C12.1501 16.9524 11.752 17.1104 11.4584 17.3917C11.1649 17.673 11 18.0546 11 18.4524C11 18.8502 11.1649 19.2317 11.4584 19.5131C11.752 19.7944 12.1501 19.9524 12.5652 19.9524H33.4348C33.8499 19.9524 34.248 19.7944 34.5416 19.5131C34.8351 19.2317 35 18.8502 35 18.4524C35 18.0546 34.8351 17.673 34.5416 17.3917C34.248 17.1104 33.8499 16.9524 33.4348 16.9524H12.5652Z" fill="#23B3FC"/>
</svg>
