<svg width="46" height="46" viewBox="0 0 46 46" fill="none" xmlns="http://www.w3.org/2000/svg">
<path fill-rule="evenodd" clip-rule="evenodd" d="M40.64 17.0877C42.4534 15.2762 41.1695 12.1772 38.6057 12.1772L33.2648 12.1791C32.6163 12.1784 31.9869 12.3984 31.48 12.8029C30.9731 13.2073 30.6189 13.7721 30.4755 14.4046C30.3321 15.037 30.4082 15.6994 30.6911 16.2828C30.974 16.8663 31.4471 17.3362 32.0324 17.6153L27.8781 21.7715L23.2972 17.1905C22.7257 16.6194 21.9508 16.2986 21.1429 16.2986C20.3349 16.2986 19.5601 16.6194 18.9886 17.1905L12.3886 23.7886C12.1232 24.0539 11.9127 24.3688 11.769 24.7155C11.6253 25.0621 11.5513 25.4337 11.5512 25.8089C11.5511 26.1841 11.6249 26.5557 11.7685 26.9024C11.912 27.2491 12.1224 27.5642 12.3876 27.8296C12.6529 28.095 12.9679 28.3055 13.3145 28.4492C13.6611 28.5929 14.0327 28.6669 14.4079 28.667C14.7832 28.667 15.1547 28.5932 15.5014 28.4497C15.8482 28.3062 16.1632 28.0958 16.4286 27.8305L21.1429 23.1162L25.7219 27.6953C26.0049 27.9784 26.3409 28.2029 26.7107 28.3561C27.0805 28.5093 27.4769 28.5882 27.8772 28.5882C28.2774 28.5882 28.6738 28.5093 29.0436 28.3561C29.4134 28.2029 29.7494 27.9784 30.0324 27.6953L40.64 17.0877Z" fill="#23B3FC"/>
<path d="M7.76193 6.80957C8.47218 6.8096 9.15696 7.07418 9.68273 7.5517C10.2085 8.02922 10.5376 8.68546 10.6057 9.39243L10.6191 9.66671V33.4762H38.2381C38.9719 33.4766 39.6773 33.7592 40.2084 34.2656C40.7394 34.7719 41.0553 35.4632 41.0905 36.1961C41.1258 36.929 40.8778 37.6473 40.3978 38.2023C39.9178 38.7573 39.2427 39.1064 38.5124 39.1772L38.2381 39.1905H7.76193C7.05168 39.1905 6.3669 38.9259 5.84113 38.4484C5.31536 37.9709 4.9863 37.3146 4.91812 36.6077L4.90479 36.3334V9.66671C4.90479 8.90895 5.2058 8.18223 5.74162 7.64641C6.27744 7.11059 7.00417 6.80957 7.76193 6.80957Z" fill="#23B3FC" fill-opacity="0.4"/>
</svg>
