<svg width="125" height="33" viewBox="0 0 125 33" fill="none" xmlns="http://www.w3.org/2000/svg">
<path d="M0.000244141 8.49999C0.000244141 4.08172 3.58197 0.5 8.00024 0.5H24.0002C28.4185 0.5 32.0002 4.08172 32.0002 8.5V24.5C32.0002 28.9183 28.4185 32.5 24.0002 32.5H8.00024C3.58197 32.5 0.000244141 28.9183 0.000244141 24.5V8.49999Z" fill="#4489F7"/>
<path d="M12.0205 13.9864C11.9255 14.0511 11.8329 14.1181 11.7428 14.1873C11.6746 14.2233 11.6085 14.2649 11.5448 14.3123C10.2199 15.2969 9.08281 16.5443 8.18227 17.7368L6.84896 16.3925C5.38912 14.9206 5.85907 13.4285 7.89884 13.0858L11.0885 12.5514C11.6184 12.4607 12.2584 11.9869 12.4983 11.4929L14.2581 7.94418C15.218 6.01861 16.7779 6.01861 17.7278 7.94418L19.4876 11.4929C19.7275 11.9869 20.3675 12.4607 20.9074 12.5514L24.097 13.0858C26.1368 13.4285 26.6168 14.9206 25.1469 16.3925L22.6672 18.8927C22.2473 19.3161 22.0173 20.1327 22.1473 20.7175L22.8572 23.8125C23.4171 26.2623 22.1273 27.21 19.9775 25.9296L17.3763 24.3771C17.5611 24.2648 17.7157 24.1603 17.8402 24.0667C18.0698 23.9503 18.2947 23.8177 18.5134 23.6686C21.2167 21.8257 21.9547 18.1642 20.1617 15.4906C18.3688 12.8169 14.7238 12.1434 12.0205 13.9864Z" fill="white"/>
<path fill-rule="evenodd" clip-rule="evenodd" d="M12.3384 15.8939C12.4011 15.8457 12.4656 15.7991 12.5317 15.754C14.4129 14.4715 16.9554 14.9491 18.2105 16.8206C19.4656 18.6922 18.9579 21.2491 17.0767 22.5316C16.9245 22.6353 16.7679 22.7276 16.6081 22.8085C15.9598 23.2959 14.1374 24.2102 11.1251 24.5846L13.6652 22.1843L6.6567 24.8035L11.9231 18.8636L8.41205 20.7414C8.85109 19.7671 10.2234 17.451 12.2006 15.9808C12.245 15.9478 12.2909 15.9189 12.3384 15.8939Z" fill="white"/>
<path d="M44.4027 28.5624C43.3032 28.5624 42.2374 28.4498 41.2052 28.2246C40.1955 27.9994 39.3317 27.6954 38.6136 27.3126L39.0512 23.2593C39.8141 23.7322 40.6555 24.115 41.5755 24.4077C42.4954 24.7005 43.3593 24.8468 44.1671 24.8468C44.93 24.8468 45.5695 24.7117 46.0855 24.4415C46.6016 24.1487 46.8596 23.7322 46.8596 23.1917C46.8596 22.7639 46.6801 22.4373 46.3211 22.2122C45.9621 21.9645 45.2778 21.6605 44.268 21.3002L43.3593 20.9624C42.3945 20.6021 41.6091 20.2643 41.0033 19.949C40.3975 19.6113 39.8477 19.1046 39.3541 18.429C38.8605 17.7535 38.6136 16.864 38.6136 15.7606C38.6136 14.0042 39.2644 12.6418 40.5658 11.6735C41.8896 10.6827 43.6061 10.1873 45.7153 10.1873C47.3757 10.1873 49.1259 10.5138 50.9658 11.1668L50.3263 15.1864C49.6756 14.8036 48.9352 14.4996 48.105 14.2744C47.2972 14.0267 46.5343 13.9028 45.8163 13.9028C45.0758 13.9028 44.4812 14.0267 44.0324 14.2744C43.6061 14.5221 43.393 14.8824 43.393 15.3553C43.393 15.8056 43.5725 16.1434 43.9315 16.3686C44.2905 16.5938 44.8963 16.8528 45.749 17.1455C46.4221 17.3932 46.8148 17.5396 46.927 17.5846C47.8694 17.9674 48.6547 18.339 49.283 18.6993C49.9112 19.0596 50.461 19.6 50.9322 20.3206C51.4034 21.0187 51.639 21.9194 51.639 23.0228C51.639 24.8693 50.977 26.2542 49.6532 27.1775C48.3293 28.1007 46.5792 28.5624 44.4027 28.5624Z" fill="#022F5E"/>
<path d="M55.1645 3.39795H59.9102V13.1935C60.6058 12.1576 61.4023 11.4033 62.2999 10.9304C63.1974 10.435 64.2295 10.1873 65.3963 10.1873C67.2587 10.1873 68.7172 10.7502 69.7717 11.8762C70.8263 12.9796 71.3536 14.5221 71.3536 16.5037V28.0557H66.608V17.2468C66.608 16.3461 66.3836 15.648 65.9348 15.1526C65.4861 14.6347 64.8802 14.3757 64.1173 14.3757C63.2871 14.3757 62.4906 14.6685 61.7277 15.2539C60.9872 15.8169 60.3814 16.5713 59.9102 17.517V28.0557H55.1645V3.39795Z" fill="#022F5E"/>
<path d="M80.755 28.5624C78.96 28.5624 77.5352 27.7967 76.4806 26.2655C75.426 24.7342 74.8987 22.6513 74.8987 20.0166C74.8987 16.819 75.7064 14.387 77.322 12.7206C78.9375 11.0317 81.2599 10.1873 84.289 10.1873C85.9943 10.1873 87.9913 10.4575 90.28 10.9979V28.0557H85.7699L85.8709 25.2859H85.7363C85.1529 26.3443 84.4349 27.155 83.5822 27.7179C82.752 28.2809 81.8096 28.5624 80.755 28.5624ZM81.7647 24.4077C82.4603 24.4077 83.1447 24.0362 83.8178 23.293C84.491 22.5499 85.1192 21.5591 85.7026 20.3206V14.6459C84.9846 14.4433 84.2666 14.3419 83.5486 14.3419C82.2023 14.3419 81.1813 14.8036 80.4858 15.7268C79.8126 16.6501 79.476 18.0125 79.476 19.8139C79.476 21.2326 79.678 22.3585 80.0819 23.1917C80.4858 24.0024 81.0467 24.4077 81.7647 24.4077Z" fill="#022F5E"/>
<path d="M94.9047 10.6602H99.6504V13.4975H99.9196C100.57 12.3491 101.21 11.5046 101.838 10.9642C102.489 10.4237 103.297 10.1535 104.261 10.1535C104.665 10.1535 105.002 10.1985 105.271 10.2886L104.766 15.4228C104.183 15.2652 103.712 15.1864 103.353 15.1864C102.837 15.1864 102.377 15.2877 101.973 15.4904C101.591 15.6931 101.243 15.9633 100.929 16.3011C100.638 16.6388 100.211 17.1568 99.6504 17.8548V28.0557H94.9047V10.6602Z" fill="#022F5E"/>
<path d="M108.247 3.39795H112.993V13.1935C113.688 12.1576 114.485 11.4033 115.382 10.9304C116.28 10.435 117.312 10.1873 118.479 10.1873C120.341 10.1873 121.799 10.7502 122.854 11.8762C123.909 12.9796 124.436 14.5221 124.436 16.5037V28.0557H119.69V17.2468C119.69 16.3461 119.466 15.648 119.017 15.1526C118.568 14.6347 117.963 14.3757 117.2 14.3757C116.369 14.3757 115.573 14.6685 114.81 15.2539C114.07 15.8169 113.464 16.5713 112.993 17.517V28.0557H108.247V3.39795Z" fill="#022F5E"/>
</svg>
